<svg xmlns="http://www.w3.org/2000/svg" xml:space="preserve" style="enable-background:new 0 0 192 192" viewBox="0 0 192 192"><path d="M44 76.8c8.9-17.5 16.6-33.7 25.4-49.3 1.7-3.1 7.1-5.5 11-5.8 11.3-.8 22.7-.1 34.1-.3 11.3-.2 22.5-.9 33.6-1.4-1.5 13.9-8.4 20.3-22.9 20.3h-23.9c-18.1 0-18.8.6-25.8 19.2 6.9 1.6 13.7 3.1 20.4 4.9 16.1 4.4 29.9 12.3 39 26.9 12.4 19.9 9.5 44.1-7.3 61-18.4 18.5-51.9 25-71.6 14.9 10.6-2.5 22.7-4.5 34.2-8.4 10.2-3.5 18-10.8 22.7-20.8 7.4-15.7 3.3-31.1-11.7-43.1C87.3 83.7 70.5 80.5 53.6 78c-2.7-.4-5.5-.7-9.6-1.2z"/></svg>