<svg xml:space="preserve" viewBox="0 0 192 192">
  <path d="M115.8 157.7c-1.9-4.8-3.9-9.7-5.8-14.5-2.1-5.2-4.1-10.4-6.2-15.5-2.2-11.2 1.5-25.1 4.8-37.4 2.6-9.6 5-18.7 4.4-25.5 20.2 15 39.5 63.5 47.7 92.9h-44.9zm-84.4 0C42.1 136.9 94.6 34.4 94.6 34.4c25.3 21.1 8.6 56.7-7.5 91-5.4 11.4-10.4 22.2-13.9 32.3H31.4z"/>
  <path d="M94.6 34.8c11 9.4 14.7 22.5 11.4 40.1-3 15.9-11.3 33.5-19.2 50.4-5.3 11.4-10.4 22.1-13.8 32.1H31.8c10.5-20.4 20.9-40.8 31.4-61.2 10.5-20.4 21-40.9 31.4-61.4m18.6 30.5c19.9 15.3 38.9 63 47.1 92.2H116c-2-4.9-3.9-9.9-5.9-14.8-2-5-4-10.1-6-15.1-2.2-11.2 1.5-25 4.8-37.3 2.4-9.3 4.8-18.2 4.3-25M94.5 34C73.3 75.4 52.2 116.6 31 158h42.3c13.8-40.6 55.5-95.7 21.2-124zm18.1 30.3c1.8 15.3-13.1 43.2-9.1 63.5 4 10.1 8.1 20.2 12.1 30.2H161c-7.5-27-27.3-78.6-48.4-93.7z"/>
</svg>
