<svg xmlns="http://www.w3.org/2000/svg" xml:space="preserve" style="enable-background:new 0 0 192 192" viewBox="0 0 192 192"><path d="M172 161.8c-7.1 0-13.5.6-19.6-.3-3-.5-6.6-3.2-8.2-5.9-14.7-24.1-28.9-48.3-43.4-72.5-1.1-1.8-2.6-3.4-4.8-6.4-7.4 12.3-14.1 23.4-20.7 34.5-8.4 14.2-17 28.3-25.1 42.7-3.3 5.8-7 9-14 8.1-4.7-.6-9.6-.1-16.2-.1 5.5-12.2 10.4-23.3 15.4-34.2 13.1-28.5 26.2-56.9 39.4-85.3 4.8-10.3 11.9-12.8 23.4-12.5 12.4.4 18 6.4 22.7 17.1 16.3 37.3 33.6 74.1 50.5 111.2.3.7.2 1.5.6 3.6z"/><path d="M71.3 139.3c6.5-20.8 12-25.5 28.9-25.3 9 .1 16.4 8.6 21.1 24.5-1.3.3-2.7.8-4 .8h-46z"/></svg>