<svg xmlns="http://www.w3.org/2000/svg" xml:space="preserve" id="图层_1" x="0" y="0" style="enable-background:new 0 0 192 192" version="1.1" viewBox="0 0 192 192"><style>.st0,.st1{stroke:#000;stroke-miterlimit:10}.st1{stroke-width:8;stroke-linecap:round;stroke-linejoin:round}</style><path d="M123.6 48.3c2.2 5.9-2 8.9-5.3 12.6-1.6 1.7-5.6 2.8-3.6 6.1 1.7 2.7 4 5.6 8.2 5.3 3.7-.3 7.4 0 11.1 0 2.2 10.4-6.2 6-10.4 7.4-4.9-.4-9.7-.7-12.7-5.6-1.7-2.7-4-2.5-5.9 0-5.3 6.7-12.7 5.2-19.8 5.3-4.7.1-2.9-3.6-3.6-5.8.3-.3.7-1 1-1 13.8 2.5 20.8-7.2 28.9-16.2-5.7-1.8-11.2-.6-16.6-.9-2.7-.2-5.6.5-5.5-3.9.1-4 2.9-3.2 5.3-3.2 9.6-.1 19.3-.1 28.9-.1zM63.8 100.5c.1-4.1-.2-8.4.4-12.4 1.3-8-2.2-10-9.3-8.4-3.8-.4-3.1-3.2-2.8-5.6.3-2.5 2.6-1.8 4.1-1.8 5.5-.1 10.9 0 16.4 0 .1 10.6.3 21.2.3 31.8 0 2.9 1.2 6.6-4.2 6.6-5.1 0-4.5-3.3-4.6-6.5 0-1.2-.2-2.4-.3-3.7zM62.6 52.8c2.1-3.2 4.7-5.1 8.7-4.4 2.6 2.4 5 4.8 3.1 8.8-1.3 2.9-3.7 3.8-6.6 3.3-4.1-.8-5-4.1-5.2-7.7zM102.7 111.3c-3.8-1.4-7.8-.9-11.6-.6-5.7.4-7.6-1.8-6.3-7.2 4.7 0 9.4-.1 14.1 0 2.7 0 4.8-.1 4.8-3.8 0-3.7-1.7-4.8-5-4.6-2.7.1-5.5 0-8.2 0-2.2 0-3.8-.5-3.9-3.2-.1-2.8 1.4-3.4 3.7-3.3h8.2c2.4 0 4.7.4 5.4-3.3.9-4.3 5-1.5 7.5-2.5 0 4.6 2.3 6.5 6.9 5.9 2.2-.3 4.4-.1 6.7 0 2 0 4 0 4.1 2.9.1 3.1-1.7 3.7-4.2 3.7-3 0-5.9.1-8.9 0-3.4-.1-4 1.9-4.1 4.8 0 3.1 1.5 3.7 4.2 3.7 4.9-.1 9.9 0 14.8 0 1.3 5.4-.6 7.9-6.4 7.1-2.2-.3-4.4.1-6.6-.1-4.3-.4-6.5.9-6.1 5.7.2 2.9 1.3 6.7-4.1 6.6-5.5-.1-3.7-4-4.1-6.8 0-1.9.8-3.7-.9-5z" class="st0"/><path d="M149.7 41C135.3 29 116.3 22.3 96 22.3c-18.1 0-37 6.9-51.9 18.9C28.8 53.6 20 70 20 86.1c0 11.7 4.5 23.5 13 34.2 7.2 9.1 16.8 16.9 27.1 22.1.1.1.5.2 1 .3-.1-.2-.3-.6-.3-.7 0 0 0 0 0 0v-.1c0-.1-.1-.4-.1-.5 0 0 0 0 0 0h-.1c-10-5-19.8-13-26.8-21.8C25.5 109.1 21 97.5 21 86.1c0-15.8 8.6-31.9 23.7-44.1C59.5 30.2 78.1 23.4 96 23.4c20 0 38.8 6.5 53 18.4 14.1 11.8 21.9 27.6 21.9 44.3 0 16.7-7.8 32.5-21.9 44.3-14.1 11.9-33 18.4-53 18.4-1.3 0-2.5 0-3.8-.1-.2.3-.4.6-.7.8 1.8.3 3.4.4 4.5.4 20.3 0 39.4-6.6 53.7-18.7C164.1 119.1 172 103.1 172 86c0-16.9-7.9-33-22.3-45z" class="st1"/><path d="m68.9 169.7-9-27.6 1-.3 8.6 26 22.3-18.6.8.9z" class="st1"/></svg>