<svg xml:space="preserve" viewBox="0 0 192 192">
  <path d="M106 89c9-4 18-1 21 6 3 9-1 18-10 21-7 3-16-3-18-11-2-7-1-15-1-23 0-3 0-7 4-6 3 0 4 3 4 7v6zm0 4c0 7-2 14 7 16 3 1 7-2 7-6 1-10-8-8-14-10zm-63 8c-1-5-3-7-9-7-2 0-5 0-4-4 0-3 2-3 5-3 8-1 16 6 16 14 1 7-7 16-14 16-8 0-16-5-16-15V81c0-2 0-6 4-6s3 4 3 6v21c0 5 5 7 8 7 4 0 7-3 7-8zm24-3v-6c0-3 2-5 4-5s4 2 3 5v11c1 4 4 6 7 6s5-2 5-6V92c0-3 2-5 4-5 3 0 3 2 4 4 2 7 1 14-3 20-4 5-9 7-15 5-7-3-9-8-9-14v-4zm104 0c1 12-3 16-10 18-8 2-15-3-16-11V92c0-2 0-5 3-5 2 0 4 2 4 5v10c-1 5 2 7 6 7 3 1 5-3 6-6V93c-1-3 1-6 4-6 4 0 3 4 3 6v5zm-108 4v9c0 3-2 5-5 5-2 0-4-2-4-5V92c0-3 2-5 4-5 3 0 5 2 5 5v10zm69 0V92c0-3 2-5 4-5 2-1 3 2 4 4 1 7 2 15-1 22 0 2-1 4-4 4l-3-4v-11zM63 80c0 4-3 5-5 5-2-1-4-2-4-5 0-4 3-5 5-5 4 0 4 3 4 5zm78 0c-1 3-3 5-6 5s-3-3-3-5c0-3 0-5 3-5 4 0 5 2 6 5z"/>
</svg>
