<svg xmlns="http://www.w3.org/2000/svg" xml:space="preserve" style="enable-background:new 0 0 192 192" viewBox="0 0 192 192"><path d="M162.8 95.9c0 11.2.2 22.4-.2 33.5-.1 2.3-1.9 5.5-3.9 6.7-19.6 11.6-39.3 23-59.1 34.1-1.8 1-5.3 1-7.1 0-20-11.3-39.9-22.7-59.7-34.4-1.8-1.1-3.5-4.1-3.5-6.3-.3-22.4-.3-44.7 0-67.1 0-2.3 2-5.5 4-6.7C52.6 44.2 72.2 33 91.9 21.9c2.2-1.2 6.1-1.3 8.3-.1 19.7 11 39.2 22.3 58.6 33.8 2 1.2 3.8 4.4 3.9 6.7.3 11.2.1 22.4.1 33.6 0 0 0 0 0 0z" style="fill:none;stroke:#000;stroke-width:10;stroke-linecap:round;stroke-linejoin:round;stroke-miterlimit:10"/><path d="M144.2 75.7c.1-9.6-6.4-13.5-12.8-9.8-10.1 5.7-20.2 11.4-30.1 17.4-3.6 2.2-6.5 2.3-10.2.1C81 77.3 70.7 71.5 60.5 65.6c-3.5-2-9.9-.4-11.9 2.9-2 3.2-.2 9.7 3.3 11.7 10 5.8 20 11.8 30.2 17.3 4.2 2.2 5.9 4.8 5.8 9.7-.4 11.6-.1 23.2-.1 34.8 0 4.2 4.4 8.7 8.4 8.8 3.9.1 8.5-4.5 8.5-8.6 0-12 .2-24 0-36.1-.1-3.8 1.2-6 4.5-7.9 10.5-5.8 20.9-11.8 31.2-18.1 1.9-1.2 3.2-3.7 3.8-4.4z"/><path d="M47.9 91.4c0 4.9.4 8.3-.1 11.5-.8 5.9 1 10 6.8 12 3.7 1.3 4.5 4.2 4.3 7.9-.1 2.6-.3 6.4 1.2 7.5 4.6 3.5 9.9 6 15.8 9.4 0-10.5.1-19.6-.1-28.7 0-1.5-.6-3.6-1.6-4.2-8.2-5.1-16.6-9.8-26.3-15.4zM144.2 91.5c-9.5 5.5-17.7 10.1-25.9 15-1 .6-2 2.2-2 3.4-.2 9.6-.1 19.1-.1 29.9 5.6-3.2 10.1-5.6 14.3-8.4 1.4-.9 2.7-3.4 2.4-5-1.2-7.2 2.2-11.1 8.3-13.9 1.3-.6 2.7-2.7 2.8-4.1.4-5.1.2-10.2.2-16.9zM68.1 56.7c9.2 5.3 17.2 10 25.4 14.6 1.2.7 3.4.9 4.5.3 8.5-4.6 16.8-9.6 26-14.9-3.7-2.2-6.7-3.5-9.2-5.5-5-3.9-9.6-4.2-15.1-.4-1.8 1.3-5.5.1-8.3-.4-2.9-.5-6.1-2.8-8.3-2-5 1.7-9.4 5-15 8.3z"/></svg>