<svg xmlns="http://www.w3.org/2000/svg" xml:space="preserve" viewBox="0 0 192 192"><path d="M153.3 96.1c0 12.8.2 25.6 0 38.5-.3 20.5-14.4 34.8-34.9 35.3-13.1.3-26.3 0-39.4.2-5.6.1-10-1.8-13.9-5.8-6.6-6.8-13.3-13.5-20.1-20.1-4.2-4.1-6.3-8.9-6.3-14.7 0-23.8-.4-47.6.1-71.4.4-20.3 13.5-33.8 33.6-35.1 16.6-1.1 33.3-1.1 49.9.1 17 1.3 30.4 15.2 30.9 32.4.3 13.4.1 27 .1 40.6zm-13 .4c.1 0 .1 0 0 0 0-12.7.1-25.3 0-38-.1-15.5-8-23.4-23.5-23.6-13.6-.1-27.2-.1-40.7 0-15.7.1-24.2 8.2-24.4 23.9-.3 19.8 0 39.7-.1 59.5 0 2.9 1 3.6 3.7 3.5 6.1-.1 12.2-.1 18.3.1 7.8.2 12.4 4.3 13.8 12 1.1 6.2.7 12.5.6 18.7-.1 3.7.9 5.2 4.9 5.1 7.9-.3 15.9 0 23.8-.1 14.9-.1 23.4-8.3 23.6-23.1.2-12.7 0-25.4 0-38zm-65.2 48.3c.1-9.4-4.5-12.9-13.3-10.5-3.9 1.1-4.9 3.6-2.2 6.8 2.8 3.2 5.9 6.1 9 9.1 1.1 1.1 2.4 2 4.1 1.4 1.9-.7 2.1-2.4 2.3-4.1.1-1 .1-2.1.1-2.7z"/><path d="M96.6 73.5c-5.5 0-11 .1-16.5 0-1.8 0-3.7-.2-5.4-.8-2.1-.6-3.3-2.2-3.2-4.4.1-2.1 1.5-3.4 3.4-3.9 1.8-.4 3.6-.7 5.4-.7 11-.1 21.9-.1 32.9 0 6.2 0 9.3 1.8 8.9 4.9-.7 5-5 4.7-8.6 4.8-5.6.2-11.3 0-16.9.1zM92.4 79.8c4.7 0 9.4-.1 14.1 0 3 .1 6.1 1.1 6.1 4.7 0 3.7-3 4.7-6.1 4.8-9.6.2-19.2.2-28.7 0-3.2 0-6.5-1-6.3-5 .2-3.9 3.6-4.5 6.7-4.6 4.8 0 9.5.1 14.2.1zM88.5 105.6c-3.8 0-7.6.2-11.4-.1-2.9-.2-5.7-1.3-5.5-4.8.1-3.2 2.7-4.4 5.5-4.4 7.9-.1 15.8-.1 23.8 0 2.8.1 5.3 1.4 5.3 4.6 0 3.2-2.5 4.5-5.2 4.6-4.2.2-8.4 0-12.5.1z"/></svg>