<svg xml:space="preserve" viewBox="0 0 192 192">
  <path d="M26 95.5c2.8-.1 5.2-.8 7-2.3 1.8-1.5 3.1-3.7 3.6-6 .6-2.5.9-6.9.9-13.1 0-6.2.1-10.2.3-12.2.2-2.6.8-5.1 1.9-7.5 1.5-3.6 4.7-6.2 8.5-7.1 1.4-.4 3.7-.6 6.9-.6h3.1v8.7h-1.7c-3.8 0-6.4.7-7.7 2.1-1.3 1.4-1.9 4.5-1.9 9.3 0 9.7-.2 15.8-.6 18.3-.7 4-1.8 7-3.4 9.1-1.6 2.1-4.1 4-7.6 5.7 4.1 1.7 7 4.3 8.8 7.8 1.8 3.5 2.7 9.2 2.7 17.2 0 7.2.1 11.5.2 12.9.3 2.5 1 4.3 2.2 5.3 1.2 1 3.6 1.5 7.1 1.5H58v8.7h-3.1c-3.6 0-6.2-.3-7.9-.9-2.3-.8-4.3-2.2-5.9-4.1-1.6-2.1-2.7-4.6-3-7.2-.5-2.9-.7-7.7-.8-14.4 0-6.7-.4-11.3-.9-13.8-.5-2.4-1.8-4.5-3.6-6.1-1.8-1.5-4.1-2.3-7-2.3l.2-9zm140 0v9c-2.8.1-5.2.8-7 2.3-1.8 1.5-3.1 3.7-3.6 6-.6 2.5-.9 6.9-.9 13.1 0 6.2-.1 10.2-.3 12.2-.2 2.6-.8 5.1-1.9 7.5-1.6 3.5-4.7 6.2-8.5 7.1-1.4.4-3.7.6-6.9.6h-3.1v-8.7h1.7c3.8 0 6.4-.7 7.7-2.1s1.9-4.5 1.9-9.3c0-9.2.2-15.1.5-17.6.6-4.1 1.8-7.4 3.5-9.8 1.9-2.6 4.6-4.6 7.6-5.7-4.3-2-7.3-4.7-9-8.1-1.7-3.3-2.6-9-2.6-16.9 0-7.2-.1-11.5-.3-12.9-.3-2.5-1-4.2-2.2-5.2-1.2-1-3.6-1.5-7.1-1.5h-1.7v-8.7h3.1c3.6 0 6.2.3 7.9.9 2.3.8 4.4 2.2 5.9 4.1 1.6 2.1 2.7 4.6 3 7.3.5 2.9.7 7.7.8 14.4 0 6.7.4 11.2.9 13.8.5 2.4 1.7 4.5 3.6 6 1.8 1.4 4.2 2.1 7 2.2z"/>
  <path d="M55.2 66.8h81.3v4.7H55.2v-4.7zm.2 62h38.3v4.7H55.4v-4.7zM55.2 79h81.3v4.7H55.2V79zm.2 12.2h81.3v4.7H55.4v-4.7zm0 12.3h81.3v4.7H55.4v-4.7zm0 12.4h81.3v4.7H55.4v-4.7z"/>
  <path d="M93.7 133.5c-1.5 0-2.8-1.2-2.8-2.8 0-.2 0-.5.1-.7l6.2-24c.1-.3.2-.7.4-.9l46.9-65.2c.9-1.2 2.6-1.5 3.8-.7l14.8 10.3c1.3.9 1.6 2.6.7 3.9l-47.1 65.4c-.2.3-.5.5-.7.7L95.2 133c-.4.3-1 .5-1.5.5zm8.8-25.6-4.3 16.6 14.4-9.3 45.1-62.8-10.2-7.1-45 62.6z"/>
  <path d="m104.7 123.2-7.4-5.3-3.1 12.2 10.5-6.9zm8.1-3.6-14.6-10.5 3.3-4.5 7.3 5.3 7.3 5.2-3.3 4.5z"/>
</svg>
