<svg xmlns="http://www.w3.org/2000/svg" xml:space="preserve" id="图层_1" x="0" y="0" style="enable-background:new 0 0 192 192" version="1.1" viewBox="0 0 192 192"><style>.st0{fill:none;stroke:#000;stroke-width:8;stroke-linecap:round;stroke-linejoin:round;stroke-miterlimit:10}</style><path d="M112.7 102.2c21-12.3 15.3-42.5-1.6-50.5-14.2-6.7-29.2-1.2-36.4 8.1-7.5 9.6-7.4 29.1 1.9 37.1 2 1.7 4.1 3.6 6.2 5.3M72.2 132.1c-2.9 2.1-7.1-.7-9.8 2.7 1 6.8 6 8.7 11.5 8.8 15.9.3 31.7.3 47.5 0 5.6-.1 10.7-1.8 11.6-9.4-4.2-.7-8-1.5-12.6-1.4-15.9.3-31.7 1.4-47.5-.6" class="st0"/><path d="M108.3 91.6c11.4-12 8.9-25.3-5.2-31.1-8-3.3-13.7-.2-18.4 4.8-5 5.3-6.6 11.9-3 19.2 1.4 2.8 2.3 5.7 5.4 7" class="st0"/><path d="M161.8 134 96 172l-65.8-38V58L96 20l65.8 38zM92.1 83.6l-20.8 48.5" class="st0"/><circle cx="97.6" cy="76.8" r="7.4" class="st0"/><path d="m102.8 83.6 22.1 49.1" class="st0"/></svg>