<svg xmlns="http://www.w3.org/2000/svg" xml:space="preserve" viewBox="0 0 192 192"><path d="M96.2 169.9c-40.7.2-73.9-32.7-74.2-73.4-.3-40.5 33.2-74.2 73.8-74.4 40.6-.1 74.1 33.3 74.2 74 .1 40.7-32.8 73.6-73.8 73.8zM33.5 96.8c.7 35.5 28.8 62.7 63.8 61.9 34.9-.8 62-29 61.2-63.7-.7-34.8-29.2-62.4-63.4-61.7-34.7.6-62.3 29.2-61.6 63.5z"/><path d="M90.8 95.6c0 5-.1 10.1 0 15.1 0 3.2-1.4 4.6-4.6 4.7-3.2.1-4.6-1.4-4.6-4.6v-28c0-2 0-4.2 2.5-4.8 2.6-.6 5-.3 6.8 2.1 3.7 4.9 7.3 9.9 11 14.8.8 1 1.6 2 3.3 4V83.2c0-3.3 1-5.4 4.7-5.4 3.9 0 4.6 2.4 4.6 5.5v26.8c0 2.2 0 4.5-2.7 5.1-2.5.5-5 .6-6.8-2-4.4-6-9-11.9-13.4-17.9-.2.1-.5.2-.8.3zM45.5 96.1c0-4.5.1-9.1 0-13.6-.1-3.3 1.3-5 4.8-4.8 3.5.1 7-.1 10.4.2 10.2.7 17.8 8.9 17.6 18.7-.2 10.4-8 18.5-18.5 18.8-3.3.1-6.7 0-10 0-2.8 0-4.3-1.2-4.3-4.1V96.1zm9.2.3v7.6c0 .9-.1 2 1.2 2.1 3.7.4 7.2.1 10.1-2.6 2.9-2.7 3.8-6.1 2.6-9.9-1.1-3.5-3.6-5.8-7.4-6.5-5.9-1-6.5-.5-6.5 5.2v4.1zM131.6 77c2.8.2 6 .7 8.7 2.6 2.4 1.7 3.5 3.6 1.5 6.3-1.8 2.5-3.8 3.2-6.5 1.3-.7-.5-1.5-1.2-2.4-1.4-2-.4-4.3-.4-5 2-.7 2.4 1.4 3.2 3.2 3.8 2.3.7 4.6 1.3 7 1.8 8.5 1.8 9.1 13 4.1 18.2-5.9 6.2-17.6 5.4-22.8-1.4-1.8-2.4-1.6-4.3.5-6.3 2-2 4-1.8 6 0 1.4 1.3 2.7 2.8 4.5 3.2 2.2.5 4.5.3 5.4-2.2.9-2.6-1-3.6-3.1-4.2-1.8-.5-3.6-.9-5.4-1.5-6.6-2.4-9.6-7-8.4-13.1.9-5.4 6-9.1 12.7-9.1z"/></svg>