<svg xml:space="preserve" viewBox="0 0 192 192">
  <path d="M55.8 146.6h80.4c1.6 0 2.9 1.3 2.9 2.9v8.6c0 1.6-1.3 2.9-2.9 2.9H55.8c-1.6 0-2.9-1.3-2.9-2.9v-8.6c0-1.6 1.3-2.9 2.9-2.9zm-13.5-24.4h8.6c1.6 0 2.9 1.3 2.9 2.9v8.6c0 1.6-1.3 2.9-2.9 2.9h-8.6c-1.6 0-2.9-1.3-2.9-2.9v-8.6c0-1.6 1.3-2.9 2.9-2.9zm24.7 0h8.6c1.6 0 2.9 1.3 2.9 2.9v8.6c0 1.6-1.3 2.9-2.9 2.9H67c-1.6 0-2.9-1.3-2.9-2.9v-8.6c0-1.6 1.3-2.9 2.9-2.9zm24.7 0h8.6c1.6 0 2.9 1.3 2.9 2.9v8.6c0 1.6-1.3 2.9-2.9 2.9h-8.6c-1.6 0-2.9-1.3-2.9-2.9v-8.6c0-1.6 1.3-2.9 2.9-2.9zm24.7 0h8.6c1.6 0 2.9 1.3 2.9 2.9v8.6c0 1.6-1.3 2.9-2.9 2.9h-8.6c-1.6 0-2.9-1.3-2.9-2.9v-8.6c0-1.6 1.3-2.9 2.9-2.9zm24.7 0h8.6c1.6 0 2.9 1.3 2.9 2.9v8.6c0 1.6-1.3 2.9-2.9 2.9h-8.6c-1.6 0-2.9-1.3-2.9-2.9v-8.6c0-1.6 1.3-2.9 2.9-2.9zM42.3 97.8h8.6c1.6 0 2.9 1.3 2.9 2.9v8.6c0 1.6-1.3 2.9-2.9 2.9h-8.6c-1.6 0-2.9-1.3-2.9-2.9v-8.6c0-1.6 1.3-2.9 2.9-2.9zm84.7 0h-1.6c-1.1 1.4-2.2 2.7-3.4 4.1-1.8 2.2-3.6 4.3-5.5 6.5.1-.1-.4.5-1 1.2.1 1.5 1.3 2.6 2.8 2.6h8.6c1.6 0 2.9-1.3 2.9-2.9v-8.6c.1-1.6-1.2-2.9-2.8-2.9zm-54.1 6.7c-1.8-2.2-3.6-4.3-5.4-6.5l-.2-.2H67c-1.6 0-2.9 1.3-2.9 2.9v8.6c0 1.6 1.3 2.9 2.9 2.9h8.6c1.1 0 2-.6 2.5-1.5-1.7-2.1-3.4-4.2-5.2-6.2zm68.2-6.7h8.6c1.6 0 2.9 1.3 2.9 2.9v8.6c0 1.6-1.3 2.9-2.9 2.9h-8.6c-1.6 0-2.9-1.3-2.9-2.9v-8.6c0-1.6 1.3-2.9 2.9-2.9zM67.3 47.3V39s.4-1.1 1.3-1.9c.9-.8 2.1-1.3 2.3-1.3h50.7c.1 0 1.2.4 2 1.2.8.8 1.2 1.9 1.2 2v8.3c1.5 0 2.9 0 4.4.1h.4V39c0-2.3-1.2-4-2.6-5.4-1.4-1.4-3.1-2.6-5.4-2.6H70.9c-2.3 0-4 1.1-5.5 2.5s-2.9 3.1-2.9 5.5v8.5c.8-.1 2.8-.2 4.8-.2z"/>
  <path d="M126.2 77.1h-1.5v17.7c0 1.2-1.1 3.7-3.1 6.5-2.1 2.8-5 5.8-8.3 8.5-3.2 2.8-6.7 5.2-9.9 7-3.2 1.8-6 2.7-7.4 2.7-1.4 0-4.2-.9-7.4-2.7-3.2-1.8-6.7-4.3-9.9-7-3.2-2.8-6.2-5.8-8.3-8.5-2.1-2.8-3.1-5.3-3.1-6.5V77.1h-4.8v17.8c0 3.2 1.7 6.2 4.1 9.4 2.4 3.2 5.6 6.4 9 9.3 3.4 2.9 7.2 5.6 10.7 7.5 3.5 2 6.7 3.3 9.7 3.3s6.2-1.4 9.7-3.3c3.5-2 7.2-4.6 10.7-7.5 3.4-2.9 6.6-6.1 9-9.3 2.4-3.2 4.1-6.2 4.1-9.4V77.1h-3.3z"/>
  <path d="M85.6 86.9c-1.3 0-2.4 1.1-2.4 2.4 0 .3.1.6.2.9l6.4 15.2c.4.9 1.2 1.5 2.2 1.5h8c1 0 1.8-.6 2.2-1.5l6.4-15.2c.5-1.2-.1-2.6-1.3-3.1-.3-.1-.6-.2-.9-.2H85.6zm3.6 4.8h13.5L98.4 102h-4.8l-4.4-10.3z"/>
  <path fill="none" stroke="#000" stroke-linecap="round" stroke-linejoin="round" stroke-miterlimit="10" stroke-width="3" d="M51.7 47.1h88.6v30.5H51.7V47.1z"/>
  <path d="M56.1 52.2h4.1c3.1 0 5.4.8 6.8 2.5 1.5 1.6 2.2 4.2 2.2 7.7 0 3.4-.7 6-2.2 7.6s-3.7 2.5-6.8 2.5h-4.1V52.2zm4.1 17.9c2.3 0 3.9-.6 4.8-1.7.9-1.1 1.4-3.2 1.4-6.2s-.4-5-1.3-6.2c-.5-.6-1.1-1-1.9-1.3-.8-.3-1.8-.4-2.9-.4H59V70l1.2.1zm13.4-17.9h12v2.3h-9.2v6h8.8v2.3h-8.8V70h9.5v2.3H73.6V52.2zm16.2 0h6c2.1 0 3.6.4 4.8 1.3 1.1.9 1.7 2.2 1.7 3.8 0 .6-.1 1.2-.2 1.7-.2.5-.4.9-.6 1.2-.3.3-.7.6-1.1.9-.4.2-1 .4-1.6.5 1.3.2 2.4.8 3.1 1.7.8.9 1.1 2.1 1.1 3.6 0 1.8-.6 3.2-1.8 4.1-1.2.9-3 1.4-5.4 1.4h-6V52.2zm6 8.3c1.3 0 2.3-.3 2.9-.8.6-.5.9-1.3.9-2.4 0-1.1-.3-1.8-.9-2.3-.6-.4-1.5-.7-2.9-.7h-3.2v6.1l3.2.1zm0 9.6c1.6 0 2.7-.3 3.4-.8.7-.6 1-1.5 1-2.7 0-1.3-.4-2.3-1.1-2.9-.7-.6-1.8-.9-3.3-.9h-3.2v7.4l3.2-.1zm16.8 2.7c-.9 0-1.8-.1-2.6-.4-.4-.1-.7-.3-1.1-.5-.4-.2-.7-.4-1-.7-.3-.3-.5-.6-.7-.9-.2-.3-.4-.8-.6-1.3-.1-.4-.2-1-.3-1.7-.1-.7-.1-1.6-.1-2.7V52.2h2.8v13.7c0 1 0 1.7.1 2.1 0 .4.1.7.3 1 .3.5.7.9 1.3 1.2.5.3 1.2.4 2 .4s1.4-.1 2-.4c.6-.3 1-.7 1.3-1.2.1-.3.2-.6.3-1 0-.4.1-1.1.1-2.1V52.2h2.7v12.4c0 1.2 0 2.1-.1 2.8s-.2 1.2-.3 1.6c-.2.9-.7 1.6-1.3 2.2-.3.3-.6.5-1 .7s-.7.4-1.1.5c-.3.1-.7.2-1.1.3-.6.1-1.1.1-1.6.1zm17.8 0c-1.3 0-2.4-.2-3.4-.7-1-.5-1.8-1.1-2.5-2.1-1.4-1.9-2.1-4.4-2.1-7.7s.7-5.9 2.2-7.8c1.4-1.8 3.4-2.8 6-2.8.9 0 1.7.1 2.5.4.8.3 1.5.6 2.3 1.1V56c-.4-.4-.8-.7-1.2-.9-.4-.3-.7-.5-1.1-.6-.4-.2-.8-.3-1.2-.4-.4-.1-.8-.1-1.2-.1-1.8 0-3.1.7-4 2.1-.9 1.4-1.3 3.4-1.3 6.2 0 1.4.1 2.6.3 3.7.2 1 .6 1.9 1 2.5.9 1.4 2.2 2 4 2 .6 0 1.1-.1 1.6-.2l.6-.3c.2-.1.4-.2.6-.4v-5.5h-2.9v-2.3h5.5v8.7c-.7.7-1.6 1.2-2.5 1.5-1.1.6-2.1.8-3.2.8z"/>
</svg>
