<svg xmlns="http://www.w3.org/2000/svg" xml:space="preserve" viewBox="0 0 192 192"><path d="M169.4 119.6c-7.2 4.8-13.8 6.4-20.2 6.4-12.5 0-24.2-6-38.6-6-6.2 0-13 1.1-20.5 4.4 5.7-1.7 10.6-2.4 15.1-2.4 16.1 0 25.7 8.9 38.5 8.9 7-.1 15-2.8 25.7-11.3zM172 97.3c-12.8 9-23.9 10.1-34.8 10.1-3.7 0-7.3-.1-11-.1-12.7 0-25.8 1.5-41.8 14.6 8.1-5 16.6-6.2 25.2-6.2 7.8 0 15.6 1 23.4 1 13.6 0 26.9-3 39-19.4z"/><path d="M106.2 54.4c.6 0 1.2 0 1.8.1v.2c-.5 3.5 1.5 6.9 4.7 8.4.5.2 1.6.7 3.2 1.4-.8 1.4-1.2 3.1-1 4.8.4 4.1 3.8 7.2 8 7.2H123.2c3.1 0 3.8.7 6.6 6.6 1.3 2.7 2.9 6.1 5.5 9.1-2.6.4-5.3.6-8.2.8-10.3.9-22 1.8-35.9 9.9-5 2.9-10.5 7.1-15.6 11.9-.3-4.1-1.2-7.8-2.9-10.6-3-5.2-8.1-8-14.3-8-2.7 0-5.6.6-8.5 1.7l.9-2.1c1.1-2.9 1.6-5.6 1.6-8.2 2.5-1.7 5.7-4.1 8.5-6.7l.6-.6c3.9-4.6 6.5-9.1 8-14.2.5.1 1.1.2 1.6.2h.3c2.4-.1 4.6-1.2 6-2.9.9 1.3 2.3 2.4 3.9 3 .9.3 1.8.5 2.7.5 2.5 0 5-1.2 6.5-3.4 4.2-6.3 9.2-9.1 15.7-9.1m14-24.9zm0 0c-46.3 2.8-49.1 28.4-49.1 28.4-1.4-10.6-9-14.2-9-14.2 1.2 4 1.2 11.7.2 18.3-1.2 5.3-3.8 9.4-6.8 12.9-5.1 4.7-11.8 8.7-11.8 8.7 3.6 7.7-6.6 21.4-12.2 23.8-4.2 1.8-7.4 2.4-7.4 2.4 4.1 6.5-4 14-4 14-.6 7.3 1.8 18.3 4.7 21.7-1.2-19.5 20.7-41.4 33.7-41.4 3.1 0 5.7 1.3 7.4 4.1 4.9 8.3 0 29.1-10.2 34.5-2.4 1.3-6.5 1.4-9.2 1.4 0 0 .9 2.3 4.2 3.2 0 0-3 3.3-9.5 3.3-.9 0-1.8-.1-2.8-.2 0 0 13.2 5.2 10.3 12 .2 0 2-.1 3.8-3.8 0 0 4.9 1.7 11.4 1.7 4.9 0 10.8-1 16.1-4.6 0 0-3.8 1.2-7.8 1.2-3.9 0-7.9-1.2-8.7-5.8-1.8-11.4 15.8-32.2 31.7-41.5 26.6-15.4 43.9-1.6 66.9-21.1-4.6 1.5-8.2 2.2-11.2 2.2-17.2 0-10.6-22.5-27.7-22.5h-.3c.9-.2 1.9-.2 2.9-.2 4.2 0 9 1 9 1 3.8 1.1 7.1 1.5 9.9 1.5 11.5 0 15.3-7.1 15.6-7.8-1.5 2.1-4.5 2.9-8.2 2.9-13.3 0-36.1-10-36.1-10 12.2-1.9 16.9-9.8 18.1-13.1-2.6 3.7-7.4 5-13.3 5-2.9 0-6.1-.3-9.4-.8-1.8-.3-3.5-.4-5.1-.4-9.2 0-16.6 4.1-22.2 12.2 1.4-23.5 35.4-28.9 36.1-29z"/></svg>