<svg xml:space="preserve" viewBox="0 0 192 192">
  <path d="M58 139h89c3 0 6 0 7-4 1-3-2-4-4-6l-9-7c-6-5-9-13-7-21 1-2 2-3 4-2 2 0 4-1 4 1l1 3c-1 9 4 14 11 17l4 3c4 4 8 8 6 15-3 7-6 10-14 10h-15c-8-1-14 1-20 9-10 13-29 12-40-3-3-4-6-7-12-6H43c-7 0-13-3-15-9s0-11 5-14l10-8c5-3 6-7 6-12V76c-1-19 17-40 35-43 3-1 7-1 9-5 1-2 5-3 6-1 2 5 6 5 10 6s6 2 5 6c-1 3-3 4-7 3-14-4-27-1-38 10-7 7-10 16-11 26v24c2 12-4 20-13 26-3 2-9 2-7 7 1 6 7 4 11 4h9zm52 9H86c-1 0-3-1-3 1-1 2 1 2 2 3 7 6 18 5 25-4z"/>
  <path d="M158 62c1 11-9 22-22 23-10 0-22-10-22-23 0-15 11-23 23-23 13 1 22 12 21 23zm-22 13c7 0 13-6 14-13 0-6-7-13-14-13-6 0-13 7-13 13 0 7 6 13 13 13z"/>
</svg>
