<svg xmlns="http://www.w3.org/2000/svg" xml:space="preserve" style="enable-background:new 0 0 192 192" viewBox="0 0 192 192"><path d="M117.1 118.8c4.7 0 9.3 0 14 .1 1.1 0 2.5-.1 3 1.3.4 1.1-.4 2-1.1 2.7-11.5 12-25.2 18.8-42.1 16.7-14.3-1.7-24.2-10.6-32-22.1-4.6-6.8-8.8-13.9-16.8-17.2-5.9-2.4-11.9-4.6-17.8-7.1-3.2-1.3-4.3-.9-4.3 2.9-.1 11.4 2.5 22.1 7.4 32.4 18.3 38.6 68.8 54.8 105.7 33.3 27.9-16.2 40.7-40.8 38.7-73.1-.2-3.8-1.5-5-5.2-5-16 .2-32.1 0-48.1.1-5.4 0-11.5-1.9-15.9.8-4.3 2.6-5.1 8.9-7.8 13.4-.1.3-.3.5-.4.8-1 1.6-1 3.3-.2 5 1.7 4 3.7 7.9 5.3 12 1 2.5 2.5 3.2 5 3.1 4.2-.2 8.4-.1 12.6-.1zM99.6 20.6c-11.1.2-19.7 1.8-28.2 4.7-14.8 4.9-26.6 14-36.4 26-2.4 2.9-2.1 4.6 1.7 5.7 4 1.2 8.1 2.5 11.8 4.4 9.6 4.9 18.8 4.5 28.3-.2 20.3-10 44.8-3.5 56.8 14 1.3 1.9 2.8 1.6 4.6.9 7.9-3 15.7-6.1 23.6-8.9 3.3-1.2 3.8-2.6 2.1-5.7-14.3-26.3-37-39.1-64.3-40.9z"/><path d="M22.8 83.6c-1.1-.3-1.7.3-1.9 1.2-.2 1.2.6 1.8 1.6 2.2 9.2 3.5 18.4 7.1 27.6 10.6.7.3 1.4.8 1.9-.1.3-.6.2-1.4 0-2.1-.5-1.5-2-1.6-3.2-2-7.4-2.9-14.9-5.7-22.3-8.6-1.2-.4-2.4-.8-3.7-1.2zM56 80.2c.2-1.5-1-1.8-1.9-2.1-8.8-3.4-17.6-6.7-26.4-10-1.3-.5-2.4-.4-2.9.9-.7 1.7.9 1.9 1.8 2.3 4.4 1.8 8.9 3.5 13.3 5.2 4.2 1.6 8.4 3.2 12.6 4.7 1.5.5 2.9 1 3.5-1zM53.3 87.6c-.2-1.1-1-1.5-2-1.8-8.7-3.3-17.3-6.7-26-10.1-.9-.3-2.1-.8-2.7.4-.6 1.3.1 2.2 1.4 2.7 8.9 3.4 17.9 6.9 26.8 10.3 1.3.6 2.3.3 2.5-1.5zM29.7 60.1c-.7.1-1 .6-1.3 1.4-.4 1.3.4 2 1.4 2.4C38.9 67.3 48 70.6 57.1 74c1.2.5 2.5.7 3-.7.7-1.9-1.1-2-2.2-2.4-7.2-2.7-14.3-5.4-21.5-8.2-2.2-.7-4.4-1.7-6.7-2.6z"/></svg>