<svg xmlns="http://www.w3.org/2000/svg" xml:space="preserve" id="图层_1" x="0" y="0" style="enable-background:new 0 0 192 192" version="1.1" viewBox="0 0 192 192"><style>.st0{fill:none;stroke:#000;stroke-miterlimit:10}</style><circle cx="96" cy="96" r="51.7" class="st0"/><path d="M96 18.5c-42.8 0-77.5 34.7-77.5 77.5s34.7 77.5 77.5 77.5c22.1 0 38.5-10 43-13 8.6-5.8 16-13.4 21.7-22.1 8.1-12.5 12.8-27.3 12.8-42.4 0-42.8-34.7-77.5-77.5-77.5zm0 129.2c-28.5 0-51.7-23.1-51.7-51.7S67.5 44.3 96 44.3s51.7 23.1 51.7 51.7-23.2 51.7-51.7 51.7z" style="stroke:#000;stroke-miterlimit:10"/><circle cx="96" cy="96" r="51.7" class="st0"/><path d="M160.6 138.2c10.3 32.7 5.2 27.6 5.2 27.6l-29.3-3.4" style="stroke:#000;stroke-width:3;stroke-linecap:round;stroke-linejoin:round;stroke-miterlimit:10"/></svg>