<svg xmlns="http://www.w3.org/2000/svg" xml:space="preserve" style="enable-background:new 0 0 192 192" viewBox="0 0 192 192"><path d="M95.6 169.9c-14.3 0-28.6.2-42.9 0-19.5-.3-30.2-10.6-30.5-30.1-.4-29.1-.4-58.3 0-87.4.3-19.3 10.4-29.7 29.6-30 29.4-.5 58.8-.5 88.2 0 19.2.3 29.5 10.9 29.7 30 .3 29.1.3 58.3 0 87.4-.2 19.3-11 29.8-30.4 30.2-14.5.1-29.1-.1-43.7-.1zm49.7-110.1c-9 3.2-17.1 5.2-24.2 8.9-5.6 2.9-10.9 7.4-15 12.2-4.5 5.2-3.7 11.6 1.5 16.2 8.8 7.8 19.3 10.6 30.5 7.1 7.6-2.4 12.7-8.5 12.1-16.7-.8-9.3-3.2-18.5-4.9-27.7zm-98.1.2c-1.6 6.3-3.2 12.6-4.7 18.9-4.1 16.8 5.8 28.3 23 26.6 11.9-1.2 21.8-7.9 23-15.6 1.2-7.7-7.3-17.8-18.4-21.8-7.2-2.6-14.4-5.1-22.9-8.1zm49 83c18.1-.7 23.4-9.9 14.5-25.4-1.8-3.1-3.7-6.1-6.1-8.7-5.4-5.8-12.2-5.9-16.9.3-3.9 5.2-6.8 11.2-9.5 17.1-3 6.6.2 11.3 6.3 13.9 3.5 1.5 7.7 1.9 11.7 2.8z"/><path d="M129.7 95.9c-2.9-5.1-5.8-7.9-5.6-10.5.1-2 4.2-5.3 6.3-5.2 2 .2 5.1 3.9 5.2 6.3.1 2.3-2.9 4.7-5.9 9.4zM73.5 85.9c-4.1 3.2-6.9 6.8-8.6 6.4-2.7-.7-4.6-4.1-6.9-6.4 2.2-2 4.2-5.4 6.6-5.6 2.1-.4 4.6 2.7 8.9 5.6z"/></svg>