<svg xmlns="http://www.w3.org/2000/svg" xml:space="preserve" style="enable-background:new 0 0 192 192" viewBox="0 0 192 192"><path d="M117.3 153.3c.5 4.1.9 7.5 1.3 12.3-11.5-8.9-13.4-21.4-15.7-33.7-1.3-6.8-4.6-11-11.1-13.9-13.3-6-23.8-15.6-30.7-28.6-.9-1.5-1.7-3.2-2.6-4.7C51.7 72.3 43 63.6 27.2 66.8c-2.6.6-5.3.1-8.2-1.3 3.7-.6 7.6-.7 11.1-1.9 4.8-1.7 9.8-3.8 13.8-6.8 7.1-5.5 16.3-6.1 22.3 1.3 5.3 6.5 9 4.5 14 .5 16.7-13.5 33.4-26.8 51.4-39.4-3.7 6.4-7.4 12.8-11 19.1 17.5-6.4 35-12.9 52.5-19.3-7.9 10.7-15.8 21.6-23.7 32.2-5.1 6.9-9.7 14.1-15.5 20.5-4.3 4.7-9.9 8.3-15.3 11.8-16.1 10.7-12.4 8.4-6.7 23.1 6.8 18 14.1 35.8 21.3 53.7-.7.6-1.3 1.2-2.1 1.7l-12.4-26.4 11 37.2-12.4-19.5h0z" style="fill:none;stroke:#000;stroke-width:6;stroke-linecap:round;stroke-linejoin:round;stroke-miterlimit:10"/></svg>