<svg xmlns="http://www.w3.org/2000/svg" xml:space="preserve" id="图层_1" x="0" y="0" style="enable-background:new 0 0 192 192" version="1.1" viewBox="0 0 192 192"><style>.st0{fill:none;stroke:#000;stroke-width:6;stroke-miterlimit:10}</style><path d="M172.5 41.2c-.5-5.1-2.2-7.4-7.9-5.1-12.3 5-24.5 10.2-36.1 16.9-13.5 7.9-22.3 19.2-27.1 33.9-5.6 17-6.5 17.4-24.2 15.5-6.7-.8-10.4.8-16 5.1-4.4 3.5-1.4 6.4-3.7 10.8-6.6 13.4-.5 2.7 6.5 2.7.8 0 1.4-.5 2.2-.7 8-1.4 12.4 3.5 9.9 11.3-1.2 3.7-3.8 6.9-4.3 10.6-.8 5.5-2.3 8.2-8.3 6.1-1.3-.5-3.5-1-4.1.6-1 2 1 3.1 2.6 4 4.2 2.4 9.6 2.4 13.5 6-1.4 2.9-5 1.5-6.5 3.9 8.8 5.1 10.9 4.4 13.6-4 .4-1.1 1.4-2.2 2.4-2.8 3-1.7 4.8-4.5 6.9-7.1 1.2-1.4 2.4-4.2 4.7-2.7 2.1 1.4.8 3.9-.5 5.5-4 5.3-1 7.6 3.6 9.7 9.6 4.3 19.3 5 29 .5 7.2-3.4 7.3-4.3.9-9.4l-12-9.6c-3.5-2.9-5.7-6.5-6.7-10.9-.9-3.9-.3-6.5 4.2-7.3 4.7-1 8.8-3.2 11-7.6 4.4-8.7 11.6-14.2 19.8-18.7 21.9-11.9 29.1-29.2 26.6-57.2z" class="st0"/><path d="M74.5 93.2C60.1 92.9 30.7 75.4 23.8 63c-6.2-11-5.6-22.5-2.7-34.3.8-3.3 2.6-3.5 4.7-1 9.4 11 21.7 18.6 32.5 27.8 9 7.7 16.4 16.8 21.9 27.3 5.9 10.7 5.9 10.7-5.7 10.4z" class="st0"/></svg>