<svg xmlns="http://www.w3.org/2000/svg" xml:space="preserve" style="enable-background:new 0 0 192 192" viewBox="0 0 192 192"><path d="M125.5 18.7c1.2.6.9 1.4 0 1.9-1.2.7-2.6 1.1-3.9 1.7-3 1.3-6 2.6-8.6 4.7-2.8 2.3-2.6 4.7.7 6.2 3.9 1.7 8.2 2.6 12.1 4.4 14 6.2 25.3 15.4 32.7 29 10.2 18.7 6.6 41.6-6.2 56.3-8.3 9.5-19 15-30.9 18.3-.8.2-1.7.2-2.5.9 1.2.7 2.3 1.3 3.3 2 9.6 6.1 16.1 14.4 18.4 25.7.3 1.6.5 3.2.5 4.9 0 1-.4 1.5-1.4 1.4H53.5h0-.2 0-.3c-2.4 0-2.4-.2-2.2-2.8.6-7.4 3.4-13.9 8-19.6 3.8-4.8 8.6-8.5 14.1-11.4-.5-.7-1.2-.7-1.8-.8-9.1-2.4-17.5-6.1-24.8-12-11.9-9.7-18.1-22.2-18.6-37.6-.4-9 1.3-17.1 5.3-24.8 4.7-8.9 11.3-16.2 19.5-22 7.5-5.2 15.7-9.4 23.9-13.4 11.5-5.6 23.3-10.5 35.3-14.9 5.2-1.8 9.4-.3 13.8 1.9zM91.6 45.6c-15.6 1-29 6.9-39.8 18.3C44 72 39.6 81.7 39.6 93.2c0 7.7 1.9 15.1 5.1 20.7 6.3 11 16.2 17.5 28 21.1 12.6 3.9 25.5 4.3 38.4 2 11.7-2.1 22.3-6.6 30.6-15.6 8.4-9.1 11.5-20.1 10.4-32.2-1.2-12.8-7.8-22.9-17.8-30.7-12.6-9.8-26.9-14-42.7-12.9zm8.2 69c2.2 2.1 3 4.8 3 7.7 0 3.1-.8 5.8-3.1 7.9-2.3 2.2-5.3 2.2-7.6 0-4.2-3.8-4.2-11.9 0-15.7 2.3-2.1 5.3-2.1 7.7.1zm-43.1-35c4.1.2 7.8 1.6 11.5 3.1l1 .4h0c7.4 2.9 14.7 6.1 21.7 10 2 1.1 2 1.3 0 2.6-7.2 4.7-15.2 6.9-22.6 7.1-7.5 0-13.3-1.1-18.2-5.2-2.9-2.4-4.6-5.5-4.3-9.3.5-6.6 5-9.1 10.9-8.7zm81.1.1c8.2.8 9.7 9.3 6.8 14.3-1.7 3-4.2 5-7.3 6.3-4 1.8-7.4 2.4-12.7 2.4-8.7-.1-16.7-2.4-24-7.2-1.8-1.2-1.7-1.4.1-2.4 8.8-4.9 18-8.9 27.6-12.1 3.1-1.1 6.2-1.7 9.5-1.3z" style="stroke:#000;stroke-linecap:round;stroke-linejoin:round"/></svg>