<svg xmlns="http://www.w3.org/2000/svg" xml:space="preserve" id="图层_1" x="0" y="0" style="enable-background:new 0 0 192 192" version="1.1" viewBox="0 0 192 192"><path d="M159.4 103v.4c0 .1.1.2.2.3l.3.3c3.9 3 7.5 6.3 10.9 9.9 1.6 1.7 3.1 3.6 4.7 5.4-.8 5-2.2 9.7-4.6 14.2-.6-.4-1.2-.8-1.8-1.3-5.1-4.4-10.9-7.3-17.4-8.7-.3-.1-.6-.1-.9-.2l-.2-.1h-.1c-.1 0-.2-.1-.4-.1-.5-.1-1-.2-1.5-.2h-.3c-.4 0-.9.1-1.4.2 2.1 2.3 3.6 4.7 4.8 7.2 3.1 6.2 4.7 12.8 6.1 19.5-7.8 6.7-16.8 11.2-26.6 13.9-25.3 7-50.4 6.6-75.2-2.4-.7-.2-1.3-.6-2-.9v-3.1c.1-5.8.7-11.6 2.1-17.2 1.1-4.1 2.6-8.2 4.9-12.2h0c-1.7.4-3.4 1-4.9 1.6l-.5.2c-7 2.7-12.6 7.1-17.1 12.7-1.5 1.9-2.9 3.9-4.2 6.1-3.5-3-6.6-6.3-9.2-10.2l.1-.1c.1-.2.3-.3.4-.5 3.3-7.9 7.7-15.1 13.4-21.6 1.5-1.7 3-3.4 4.8-5.3h0c-8 .8-15.3 2.8-22.1 6.1-1.5.8-3.1 1.6-4.6 2.5h0c-1.9-8-1.6-15.9-.1-23.9 2.1-11.1 6.7-21.2 13.4-30.3.3-.4.5-.7.8-1.1l.3-.4c1.1-1.4 2.2-2.9 2.5-4.9 1.3-3.6 2.6-7.2 4-10.8 2.5-6 4.9-12.1 9.1-17.2.8-.9 1.5-1.6 2.8-1.6 2.9-.1 5.7.3 8.5.6 5.7.7 11.2 2.2 16.6 4.1 3.8-.6 7.6-1.7 11.5-2.1 4.8-.5 9.6-.9 14.4-.4.9.1 1.7-.1 2.3-.7 3.1-.8 5.9-2.2 9-3 3-.8 5.7-.4 8.6.9 9.6 4.4 17.1 11.3 24.1 18.9 1 1 1.7 2.3 2.9 3l.2.1v.1c-.1.4.1.6.5.7 9.7 9.7 18 20.3 22.8 33.4 2.3 6.4 4.1 12.9 4.3 19.7l-.7-.1c-2.4-.4-4.8-.8-7.2-1.1l-.7-.1c-2.3-.3-4.9-.4-7.6-.2zm-26.5 22.5c-.5 1.5-1.7 2.4-2.9 3.2-2.1 1.4-4.4 2.5-6.8 3.3-12.1 4-24.4 5-36.9 3-3.8-.6-7.6-1.5-10.6-4.2-1.3-1.2-2.3-.7-3.3.2-1.2 1.1-.2 2 .5 2.7 1.1.9 1.5 2 1.8 3.4 1 4.4 3 8.3 5.8 11.9.7.9 1.2 1 2.1.4 3.4-2.2 6.6-4.5 8.6-8.1.7-1.1 1.5-1.5 2.7-1.4 8.2.3 16.3-.2 24.3-2.2 1-.2 1.5.1 2.1.7 3 2.7 6.3 4.8 10.2 6 1.4.4 1.9.1 2.6-1.2 2.7-5.2 1.7-11.2 3.5-16.6.1-1.1-.5-1.9-1.5-2.2-1-.4-1.9 0-2.2 1.1zm-41-81.9c-12.2 1.8-23.1 6.6-32.3 14.8-11.8 10.6-17.8 23.8-17.1 40 .4 9.4 5.9 16.9 14.8 20 5.6 1.9 11.4 2.3 17.1 2.3 7.2-.1 14.1-.8 21.1-1.3 9.5-.7 19-1.5 28.5-2.3 7-.6 14-1.6 20.6-4 7.9-2.9 13.7-7.7 15.5-16.4 1.2-5.8.3-11.4-1.6-16.8-4.9-14.3-14.9-24-28.3-30.3-12.1-5.9-24.9-8-38.3-6zm3 17.9c6.4.9 12 3.8 17.5 7 3.3 1.9 6.5 4.1 9.2 7 2.7 3 3 4.9.4 7.9-6.9 8-15.5 13.5-25.6 16.5-3.8 1.1-5.7 0-7.2-3.7-2.2-5.5-2.6-11.2-2.7-16.3 0-5.2.3-9.6 1.6-13.9 1.2-4.1 2.8-5.1 6.8-4.5z" style="stroke:#000;stroke-linecap:round;stroke-linejoin:round"/><path d="M75.6 34c-5.4-1.9-10.9-3.4-16.6-4.1-2.8-.3-5.7-.7-8.5-.6-1.3 0-2.1.7-2.8 1.6-4.2 5.1-6.6 11.1-9.1 17.2-1.4 3.6-2.7 7.2-4 10.8-.9-.6-.1-1.3 0-2 1.6-11 5.6-21.1 11.2-30.7.5-.9.9-1.6 2.3-1.4 9.2 1.3 18.1 3.7 26.3 8.3.4.2.8.6 1.2.9M148.8 50.8c-1.4-.8-2.2-2.1-3.2-3.2-7-7.6-14.5-14.5-24.1-18.9-2.9-1.3-5.6-1.6-8.6-.9-3.1.8-5.9 2.2-9 3 3.2-3.3 7-5.7 11.3-7 1.1-.3 2.1-.2 3.1.1 7.5 2.4 13.7 6.9 19.3 12.3 4.1 3.9 7.5 8.4 10.6 13.1.3.4.9.8.6 1.5" class="st1"/></svg>