<svg xmlns="http://www.w3.org/2000/svg" xml:space="preserve" id="图层_1" x="0" y="0" style="enable-background:new 0 0 192 192" version="1.1" viewBox="0 0 192 192"><style>.st1{stroke:#000;stroke-linecap:round;stroke-linejoin:round;stroke-miterlimit:10}</style><path d="M71.7 88.6c-1.8-33 35.7-46.5 60.8-33.3 13.6 7.1 22 21.9 17.6 35.9-1.1 3.4 1 3.5 3.5 3.9 11.7 1.7 17.6 11.4 11.1 21.1-1.8 2.6.3 3 1.7 4 7.7 5.7 7.5 12.3-.7 17.2-5 3-10.5 4.3-16.4 4.3-35.9 0-71.8.1-107.7 0-11.7 0-20.6-7.5-21.5-17.6-.9-10.8 6.2-19.4 18.3-21.3 3.5-.5 4.4-1 4.2-4.9-.7-11 9.5-17.3 20.9-13.2 2.8.9 5.4 2.5 8.2 3.9z" style="fill:none;stroke:#000;stroke-width:8;stroke-linecap:round;stroke-linejoin:round;stroke-miterlimit:10"/><path d="M75.2 111.2c-3.2-1.3-5.5-2.1-7.7-3-1.4-.6-2.5-1.8-1.8-3.4.7-1.7 2.1-.4 3.1 0 3.1 1.1 6.1 2.4 9.1 3.5 1.3.5 2.1 1.1 2.2 2.5.2 1.7-.7 2.6-2.2 3.2-3.2 1.3-6.4 2.6-9.6 3.8-1 .4-2.1.6-2.6-.6-.4-1-.2-2.1 1-2.6 2.4-1 4.9-1.9 8.5-3.4zM116.8 111.3c3.3 1.3 5.6 2.1 7.8 3 1.3.5 2.1 1.3 1.7 2.7-.6 1.7-1.8 1.1-2.9.6-3-1.2-6-2.3-9-3.5-1.4-.5-2.5-1.2-2.4-3 .1-1.8 1.1-2.4 2.6-2.9 3.1-1.1 6-2.4 9.1-3.4.8-.3 1.9-1.3 2.6 0 .7 1.2.1 2.5-1.1 3.1-2.4 1.1-4.9 1.9-8.4 3.4z" class="st1"/><path d="M108.6 120.4H83.5v-.7h25.1v.7z" style="stroke:#000;stroke-width:2;stroke-linecap:round;stroke-linejoin:round;stroke-miterlimit:10"/></svg>