<svg xmlns="http://www.w3.org/2000/svg" xml:space="preserve" id="图层_1" x="0" y="0" style="enable-background:new 0 0 192 192" version="1.1" viewBox="0 0 192 192"><style>.st0{stroke-linecap:round;stroke-linejoin:round}.st0,.st1{stroke:#000;stroke-width:3;stroke-miterlimit:10}</style><path d="M98.5 172c-10-.3-17-1.9-23.6-5-4.8-2.3-9.5-4.8-14.1-7.6-3.7-2.2-5.8-5.9-6.7-10-1.1-5.1-2.1-10.2-3.2-15.3-.1-.5-.2-1-.3-1.4-.5-1.9-1.5-2.5-3.3-2-3.4.8-6.7 1.7-10.1 2.4-3.9.8-6.2-1.5-5.1-5.4.7-2.7 1.8-5.3 2.7-7.9.9-2.7.5-5.4-.4-8-1.9-5.4-1.7-10.9-.2-16.3.6-2.1.4-3.3-1.2-4.7-4.8-4.3-6.2-10.4-3.9-16.4.1-.3.2-.6.3-.8 2.4-2.7 2-5.5 1-8.8-2.2-7.1 2.4-14.9 10.1-16.3 1.8-.3 2.8-1.2 3.5-2.9 3.6-8.4 9.7-13.7 18.9-14.2 3.4-.2 7 1.1 10.4 2.1 2.7.7 2.7.9 4.3-1.4 6.3-9.7 15.6-12.6 26.6-11.7 4.6.4 9 1.4 12.8 4.2 4.3 3.2 6.7 7.6 8.2 12.6.8 2.6.9 2.8 3.5 2.2 8.6-1.7 17.5 3.9 19.5 12.4.3 1.4.3 3 .2 4.5 0 1.3.4 2 1.7 2.3 6.9 1.4 11.5 5.7 13.2 12.3 2 7.5-.1 14.2-6.5 19.1-1.6 1.2-1.9 2.1-1 3.9 2.5 4.9 2.4 10.2 1.5 15.5-.6 3.8-.4 7.5.8 11.1.5 1.4.8 2.8 1 4.2.5 3.2-1.9 5.3-5 4.5-2.9-.7-5.8-1.6-8.7-2.5-1.6-.5-2.2 0-2.3 1.6-.4 5.1-1.1 10.3-1.3 15.4-.2 6.9-3 12.4-8.4 16.6-6 4.7-12.9 7.5-20.2 9.2-5.6 1.2-11.5 1.9-14.7 2.5zm24.3-126.1c-.3-1.7-.5-2.8-.7-3.9-.5-4.3-2.3-8-4.9-11.4-2.8-3.7-6.7-5.2-11.2-6.1-5.6-1.1-10.9-.5-15.9 1.6-4.8 2-8.4 5.7-10.8 10.4-1.8 3.4-1.8 3.3-5.2 1.6-9.3-4.8-17.2-3.8-23.7 3.9-2.2 2.5-3.5 5.4-2.8 8.9.2 1.2-.3 1.7-1.5 1.5-.5-.1-1.1-.2-1.6-.2-7-.5-10.6 3.5-10.7 9.9 0 1.1.6 2.5 1.3 3.4.9 1.2 2.1 2.1 3.6 3.5-.4.2-1 .4-1.3.7-1.7 2.1-3.6 4.1-4.8 6.5-2.2 4.1-.1 9.8 4.2 12.2.3-.5.7-.9 1-1.4 3.7-6.5 9.3-10.6 16.3-13 10.6-3.5 20.5-1.8 29.3 5 4 3.1 7 7.1 9 11.7.6 1.5 1.5 1.9 3 1.3 3.9-1.5 7.5-3.3 10.3-6.6.5-.7 1.2-1.2 2.2-2.2 0 1.3-.1 2 0 2.7.3 2 1.4 3.3 3.2 4.1 1.8.7 2.8-.4 3.8-1.6.3-.4.6-.7 1-1.1 6.6-7.3 18-9.9 27-5.7 2.7 1.2 5.1 3.2 7.5 5 1.3.9 2.4 1.5 3.7.4 5.6-4.5 6.9-12.1 4-17.7-2.8-5.5-7.7-7.4-13.7-7-1 .1-2 0-3.2 0 3-5 4.7-10 .3-14.5-5.1-5.7-11.6-6.5-18.7-1.9zm-67.5 87.6c.2 1 .3 1.7.5 2.4.7 3.4 1.6 6.8 1.9 10.2.5 5.2 3.4 8.7 7.6 11.1 4.8 2.8 9.8 5.2 14.7 7.7.7.3 1.5.5 2.3.6 2.4.4 4.8.9 7.2 1.2 2.6.3 5.3.6 8 .5 11.6-.5 22.4-3.8 32.4-9.9 4.6-2.8 7.5-6.9 7.8-12.4.3-4.9.7-9.8 1-14.7.1-.9 0-1.9 0-2.8-.3 0-.4-.1-.6-.1-.4 0-.7.1-1.1.1-8.2 1.6-15-1.1-20.7-6.8-6.1-6.2-8-13.9-6.1-22.2.8-3.6-.2-5-3-6.4-1.1-.6-1.9-.6-2.9.1-2.2 1.3-4.4 2.5-6.8 3.4-2.7 1.1-2.7 1-2.3 4 .8 6.4-.2 12.5-3.4 18.1-6.7 11.7-16.8 17.4-30.4 16.5-2-.1-3.9-.4-6.1-.6zm36.1-30.3c-.5-2.9-.5-6-1.5-8.7-5.1-13.9-18.4-20.9-32.7-17.2-17.3 4.5-23.8 22.5-17.5 37.1.4.9.5 2.2.3 3.2-.9 3-2.1 5.9-3.1 8.9-.3.8-.2 1.6-.4 2.4.7 0 1.5.1 2.2-.1 3-.8 5.9-1.8 8.9-2.4 1.1-.2 2.6 0 3.6.6 7.2 4 14.9 4.3 22.4 1.7 10.7-3.9 17.8-13.7 17.8-25.5zm63.2 21.8.5-.5c-.7-2.4-1.4-4.7-2.1-7.1-.8-2.5-1.2-4.9-.2-7.5 2.7-7.3.8-13.9-3.9-19.5-8-9.6-23.9-8.9-31.3 1.1-8.6 11.5-3.4 27.7 11 31.8 4.3 1.2 8.8 1.2 13.1-1 1.1-.6 2.7-.4 4-.3 1.4.2 2.6.9 3.9 1.3 1.7.7 3.4 1.2 5 1.7z" class="st0"/><path d="M105.5 69.4c.1-1.6.2-3 .2-4.4 0-2.5-1-4-2.7-4.3-1.8-.3-3.9 1.1-4.7 3.1-1 2.6-1 2.5-3.6 1.9-1-.2-2.2-.3-3.2-.1-1.3.3-2 1.4-1.9 2.9.1.9.1 2.2-1.3 2.1-1.4-.1-1.3-1.4-1.2-2.4.4-3.2 2.6-5.2 5.8-5 1.8.1 3.1-.2 4.3-1.9 1.6-2.4 4.7-3.5 6.6-2.9 3 1.1 4.5 3.3 4.4 7 0 1-.1 1.9-.4 2.9-.4 1-1.1 1.4-2.3 1.1z" class="st1"/><path d="M80.9 44.8c.4 0 .9 0 1.3.1 2.2.6 4 .5 5.2-1.9.5-1 2-2.4 3.1-1.3 1.2 1.1-.7 2-1.2 2.9-.5.9-1 1.7-1.1 2.7-.3 1.6-.8 1.9-2.3 1.3-1.4-.5-2.9-1-4.3-1.2-2.7-.3-3.2.1-4.5 2.6-.4.8-.9 1.9-2.1 1.3-1.2-.6-.7-1.5-.3-2.3 1.2-3.2 2.9-4.3 6.2-4.2z" class="st0"/><path d="M47.3 59.6c.8-2 1.9-2.9 3.5-2.8 2.9 0 5.8.1 7.3 3.3.3.6 0 1.4-.1 2.1-.7-.3-1.7-.4-2-1-1.2-2.2-3-2.1-5-2-1.1.1-2.2.3-3.7.4z" class="st1"/><path d="M63.7 102c-3.1 0-3.1 0-3.2 3.1v1.5c-.1 2.1-.8 2.8-2.9 2.9-1.7.1-3.2-1.1-3.4-2.8-.1-.9-.1-1.8 0-2.7.1-1.5-.7-1.9-2-1.9-.8 0-1.7 0-2.5-.1-1.9-.2-3-1.4-3-3s1.4-3 3.2-3.1c.6-.1 1.2 0 1.8.1 2.2.1 2.5-.2 2.5-2.5 0-.8-.1-1.6 0-2.4.2-1.6 1.8-3 3.2-2.9 1.9.1 3 1.1 3.1 3.1v.7c.1 3.9.1 3.9 4 3.9 2.3 0 3.6 1.2 3.6 3.1 0 2-1.2 3-3.5 3-.3.1-.6 0-.9 0zM125.7 94.2c3.5.1 6.6 3 6.5 6.4-.1 3.7-3.1 6.7-6.6 6.6-3.8-.1-6.5-2.9-6.4-6.6.1-3.7 2.9-6.4 6.5-6.4z"/></svg>