<svg xmlns="http://www.w3.org/2000/svg" xml:space="preserve" viewBox="0 0 192 192"><path d="M95.8 169.9c-41-.2-73.9-33.2-73.8-73.9.1-40.8 33.8-74.3 74.4-73.9 40.7.3 73.8 33.8 73.6 74.3-.2 40.8-33.4 73.7-74.2 73.5zM33.3 96.2c.2 35.2 27.9 62.8 62.9 62.7 35.1-.1 62.6-27.9 62.5-63.1-.1-34.7-28.6-63-63.1-62.7-34.6.3-62.5 28.6-62.3 63.1z"/><path d="M85.3 100.4c-3.3-.5-5.6.9-7.8 3.2-5.6 5.8-11.4 11.3-16.9 17.1-1.9 2-3.5 1.8-4.8-.3-1.2-1.9-5.3-3-1.9-6.3 3.1-3.1 6.2-6.3 9.3-9.4.9-.9 2.4-1.8 1.7-3.3-.7-1.4-2.4-.9-3.7-.9-3.6-.1-7.2-.2-10.8-.1-3.9.1-3.3-2.6-3.3-5s-.1-4.6 3.4-4.4c3.9.2 7.8 0 11.6-.1 1 0 2.3.2 2.9-.9.7-1.4-.6-2.2-1.4-3-3.2-3.4-6.5-6.7-9.8-10.1-3.3-3.4.7-4.4 2-6.3 1.4-2 2.9-2.4 4.8-.3 5.6 5.9 11.6 11.5 17 17.6 3.4 3.8 7.3 3.2 11.4 2.9 1-.1 1.9-.7 1.9-1.7.2-3.8.9-7.6-2.5-10.8-6.1-5.7-11.6-11.8-17.7-17.5-3.3-3.1-.6-4.4 1.1-6.4 2-2.3 3.5-2.7 5.8-.2 3.1 3.5 6.6 6.7 9.9 9.9.7.7 1.5 1.7 2.7 1.1 1-.5.8-1.6.8-2.5.1-4.3.2-8.6.1-12.9-.1-3.1 1.8-3.1 4-3 2.1.2 4.9-1 4.9 2.9 0 4.1.1 8.3.1 12.4 0 1.1-.4 2.6 1.1 3.1 1.2.4 1.9-.7 2.7-1.4 3.3-3.3 6.8-6.5 9.9-9.9 2.3-2.6 3.8-1.4 5.5.6 1.5 1.8 4.5 3 1.3 6-6 5.7-11.6 11.9-17.7 17.5-3.4 3.2-2.9 6.9-2.8 10.8 0 1 .6 1.9 1.7 2 3.9.3 7.9 1.3 11.2-2.3 5.5-6 11.4-11.7 17-17.6 2-2.1 3.5-2.6 5.5-.1 1.7 2.1 5.1 3.7 1.4 7-3.1 2.8-5.9 5.9-8.7 8.9-.9.9-2.5 1.8-2 3.2.6 1.8 2.5 1.1 3.9 1.2 3.6.2 7.2.3 10.8.1 3.3-.1 3.3 1.9 3.2 4.2-.1 2.3.9 5.2-3.1 5.2-3.7 0-7.5 0-11.2.1-1.3 0-2.9-.5-3.5 1.1-.5 1.3.8 2.1 1.6 3 3 3.1 5.9 6.2 9 9.2 3.9 3.6-.4 4.9-1.8 7-1.6 2.4-3.1 1.6-4.8-.2-5.6-5.8-11.5-11.2-16.9-17.2-3.3-3.6-7.1-3.1-11.1-2.8-1.4.1-2 1.1-2.2 2.5-.4 4.1-.2 7.8 3.4 10.9 5.8 5.1 11.1 10.9 16.8 16.1 2.6 2.4 1.9 3.9-.3 5.8-2.1 1.8-3.6 4.6-6.7 1.1-2.9-3.3-6.2-6.3-9.4-9.4-.7-.7-1.5-1.8-2.7-1.3-1.2.5-1 1.8-1 2.8-.1 3.9-.3 7.8-.1 11.6.1 3.6-2 3.7-4.6 3.8-2.8 0-4.7-.4-4.5-3.9.2-3.7 0-7.5-.1-11.2 0-1.1.4-2.7-1.1-3.2-1.3-.5-2.2.8-3 1.6-3.1 3-6.3 5.9-9.1 9.1-2.8 3.2-4.4 1.2-6.4-.8-2-1.9-3.6-3.4-.6-6.1 6-5.5 11.6-11.5 17.7-17 3.5-3.2 3-7 2.3-10.8-.5-3-3.5-1.7-5.4-2z"/></svg>