<svg xmlns="http://www.w3.org/2000/svg" xml:space="preserve" style="enable-background:new 0 0 192 192" viewBox="0 0 192 192"><path d="M151.9 83.9c-14.3 0-23.8 13.7-19.1 27.4 2.8 8 10.8 13.4 19.6 13.4.8 0 1.6 0 2.3-.1 9.1-1 16.6-8.3 17.7-17.2.2-1.8 0-3.5-1.7-4.5-.8-.4-1.6-.7-2.4-.7-.9 0-1.7.3-2.6.8-1.3.8-1.5 2.1-1.7 3.4-.1.3-.1.6-.2.9-1.3 5.7-6.4 9.5-11.9 9.5-1.4 0-2.8-.2-4.2-.8-.1-.1-.3-.1-.4-.2-1-.3-2-.7-2.3-1.8-.2-1.1.6-1.6 1.4-2 .2-.1.5-.2.6-.4 3.2-2.2 6.5-4.4 9.7-6.6 3.2-2.2 6.5-4.4 9.7-6.6 3.6-2.5 3.9-4.3 1-7.6-4.1-4.5-9.3-6.9-15.5-6.9.1 0 .1 0 0 0 .1 0 0 0 0 0zM141 105.5c-.2 0-.4-.1-.6-.2-.6-.4-.6-1-.5-1.7v-.2c.3-6.6 6.1-11.8 12.2-11.8 1.2 0 2.5.2 3.7.7.1 0 .1 0 .2.1.1 0 .1 0 .2.1.7.2 1.4.5 1.5 1.2.2.8-.4 1.2-1 1.5-.1.1-.3.2-.4.2-4.5 3.1-9.1 6.2-13.7 9.3-.1.1-.2.1-.2.2-.5.3-.9.6-1.4.6zM37.5 67.3c-10.4 0-17.8 7-17.9 17.6V119c0 2.8 1 4.7 4.1 4.7 3.1 0 4.2-1.7 4.2-4.6V107c0-2.2.8-3.3 3-3.3h.3c.9 0 1.8.1 2.8.1 1.2 0 2.3 0 3.5-.1 10.5-.5 16.5-5.6 18.2-15.4 1.9-10.5-5-19.8-15.5-20.9-1 0-1.9-.1-2.7-.1zm-9.6 21.3v-1.4c0-1-.1-2 0-3.1.5-5.2 4.1-8.4 9.5-8.5h.3c5.2 0 8.8 2.9 9.5 7.7.9 6.2-1.6 10.6-6.7 11.9-1.6.4-3.2.5-4.8.5-1 0-1.9 0-2.9-.1-.9 0-1.7-.1-2.6-.1-1.6 0-2.2-1-2.2-2.5v-3c-.2-.4-.2-.9-.1-1.4-.1 0-.1 0 0 0-.1 0 0 0 0 0zM91.7 84.3c-.4 0-.9.1-1.5.2-2.7.5-2.9 2.6-3 4.7v7c0 4 0 8-.1 12-.1 4.5-3.1 7.7-7 8.1h-1c-4.1 0-7.1-2.4-8-6.7-.4-1.7-.5-3.4-.5-5.1-.1-4.9-.1-9.8 0-14.7v-1.1c0-2.6-1-4.1-3.8-4.1h-.1c-2.9 0-3.8 1.7-3.8 4.2V108.4c.1 9.2 6.6 15.9 15.8 16.1h.4c8.7 0 15.8-6.6 16.2-15.5.2-5.8.2-11.6.1-17.4v-2.9c0-3-1.3-4.4-3.7-4.4zM109.4 84.5c-2.2 0-3.6 1.8-3.7 5-.1 3.4 0 6.7 0 10.1v19.5c0 2.8.9 4.7 4.1 4.7 3.2 0 4.1-2 4-4.8v-3.2c0-4.4 0-8.9.1-13.3.1-6.1 3.3-9.6 9.3-10.3 2.7-.3 3.9-1.6 3.8-4.2-.1-2.7-1.9-3.4-4.2-3.4h-.6c-2.1 0-4.2.2-6.1 1.1-.5.2-1 .4-1.5.4-.6 0-1.3-.2-2-.6-1.3-.7-2.3-1-3.2-1z"/></svg>