<svg xml:space="preserve" viewBox="0 0 192 192">
  <path d="M149 127c0-3 0-5-3-5-2-1-3 1-3 2l-7 38c0 2 1 3 3 4 3 0 3-1 3-3l7-36zM53 31c0-3 0-5-3-5-2 0-3 1-3 4l-2 10-5 26c0 2 1 4 3 4 2 1 3 0 3-2l7-37zM34 146c0-6 1-12 4-17 3-4 7-6 12-6s9 3 10 8c4 11 3 21-4 29-6 8-15 7-20-2-2-4-2-8-2-12zm25-5c0-5-1-9-4-12-4-3-7-3-11 0-7 6-8 20-3 28 4 5 9 5 13 0s5-11 5-16zm70-91c0-6 2-12 6-17 6-9 17-8 21 2 5 10 2 21-4 30-6 8-15 6-20-3-2-3-3-8-3-12zm25-3c0-7-1-10-3-13-4-4-8-4-11 0-7 6-9 19-4 27 4 6 10 6 14 0 3-5 4-10 4-14z"/>
</svg>
