<svg xmlns="http://www.w3.org/2000/svg" xml:space="preserve" viewBox="0 0 192 192"><path d="M160.8 95.3c-3.1 4.9-8.3 8.3-13.9 9 3.8-16.5-.6-34.8-11.3-47.7 1.9 4.9.4 11-3.6 14.3-3.9-6.8-7.9-13.7-11.8-20.5-2.6-4.4-5.2-9-6.1-14.1-.9-5.1.1-10.9 3.8-14.3C99 28.9 84.4 47.3 81.5 68c-6.1-5.3-13.7-8.7-21.6-9.8 5.5 9 4.7 20.4 0 27.5-4 6-8.1 10.7-7.1 18.1-5.6-4.8-8.2-13-7.3-20.5-10.7 16.7-9.7 39.8.6 52.7-5 1.5-12-2-15.9-6.1.3 7.2 2.6 11.4 5.3 16.2 9.7 17.1 21.5 23.8 41.9 24 1 0 10.2-.3 11.3-.3 0 0-.9-3.5-2.1-6.9-2.1-5.9 1.1-12.4 3.9-18s9.8-11.7 9.2-17.9c-2.7 2.8-10 3-11.3 3.1-11.9.9-8.1 6.3-6.9 6.9-5.1-.7-6.5-11.4-7-16.7 1.3 2.1 5 2.4 7.3 2.5 8.8.4 9.5-.6 12.9-2 4.3-1.8 4.2-1.7 5.7-3.6-1.1-1.4-2.9-2.4-6.6-.4-2 1.1-6.3 1.4-3.2-.1 2.5-1.2 4.6-2.8 7.1-3.3 1.3-.2 5 .3 5.1.2-10.2-2.3-13.2-2.1-17.5-1.7-8.6.8-12.6 2.7-13.6 4.5-1.9-5.9-1.2-5.6 3.6-9.3 5.6-4.3 4.7-3.6 9.1-5.5.5-.2-1-4.5 1.2-6.1 3.7-2.8 5.6-5.2 8.7-7.2.7-.5 8.5-4.8 12.9-6.4 3.4-1.2 17.1-6.4 18.3-7 6.5-3.2-8.9 7.4-10 11.7-2.3 8.5 12.4 78.6 12.4 78.6 10.6-3.4 23.8-15.4 28.9-27.8 4.9-12.4 6.1-28.8 4-42.1"/></svg>