<svg xmlns="http://www.w3.org/2000/svg" xml:space="preserve" style="enable-background:new 0 0 192 192" viewBox="0 0 192 192"><path d="M61.3 30.8c-3 4.7-2.8 8.8 4.4 10.8-3.2 5.3-4.5 10.2 3.2 12.7-2.3 5.9-3.9 11.3 5.2 12.3-2.8 5.8-4 10.6 3.2 12.8-1.5 5.3-2.6 10.3 5.1 11.8-2.8 7-1.9 11.8 7.2 10.9 0 2.3.8 4.8-.1 6.1-7.8 10.4-2.6 22.1-3.2 33.1-.1 2.4 6 7.1 9.3 7.2 3.3.1 9.4-3.9 9.8-6.7 1.4-9.5 1.2-19.4.7-29.1-.1-3-3-5.9-5.3-9.9 9-.4 12.6-3.4 8.6-11.4 7-1.4 7.4-5.9 5.3-11.7 6.3-2.4 6.9-6.7 3.2-12.5 7-1.8 8.8-5.9 5.1-12.4 6.6-2.9 7.8-7.2 3-12.9 7.2-2.2 8.1-6.3 3.9-12 1.9-.7 4.3-.8 5.4-2.1 6.9-8.2 15.4-5.3 22.8-2.4 8.4 3.4 11.3 11 11.2 20.2-.2 34.2-.1 68.4-.1 102.6 0 13.9-7.9 21.7-21.8 21.8H44.1c-13.5 0-21.5-7.9-21.5-21.3-.1-34.9-.1-69.9 0-104.8 0-15 15.9-26 29.6-20.4 3.3 1.4 5.8 4.6 9.1 7.3z"/></svg>