<svg xmlns="http://www.w3.org/2000/svg" xml:space="preserve" viewBox="0 0 192 192"><path d="M94.2 22.1c40.6-1.6 67.6 28.1 74.2 63.5 6.1 32.5-7 57.8-38.6 73.2-20.5 10-42.2 13.7-65 9.3-23.6-4.6-38-19.1-41.4-43-4.4-31 1.7-59.4 23.3-83.3C59.7 27.6 76 21 94.2 22.1zm0 11C79.9 32 66.9 37.8 56.4 48.9 37.5 69 30.6 93.3 34 120.4c2.6 21.3 15.6 34.6 36.8 37.5 25.9 3.5 49.2-3.4 69.4-19.8 10-8.1 16.6-18.6 18.1-31.7 1.3-11.3-.8-22.2-5.2-32.6-9.8-23.3-30.4-41.8-58.9-40.7z"/><path d="M61 80.1c0-2.2 1-3.8 2.9-4.6 2.6-1 5-.3 6.9 1.7l18.3 18.3c1.1 1 2.2 2 3.1 3.2 2.4 2.9 4.4 2.5 6.9-.1 6.9-7.2 13.9-14 20.9-20.9 3.3-3.2 6-3.5 8.5-1 3 3.1 1.8 5.8-.9 8.4-9.3 9.2-18.5 18.5-27.7 27.7-3.2 3.2-5.6 3.3-8.8.1-9.3-9.2-18.5-18.4-27.7-27.7-1.5-1.4-2.4-3.1-2.4-5.1zM130.2 108.6c0 8.6 0 8.6-8.7 8.5-2.2 0-5.3.9-6.2-1-1-2.2 1.8-4 3.3-5.7 2.5-2.9 5.1-5.7 7.7-8.6.8-.8 1.6-2 3-1.4 1.2.5.9 1.8.9 2.8v5.4zM61.4 108.1c.3-2.3-1.2-6.6.7-7.4 2.4-1 4 3.1 5.9 4.9 2.7 2.5 5 5.5 7.4 8.2 1.9 2.1 1.1 3.2-1.4 3.2-3.3.1-6.5 0-9.8.1-2 0-3.1-.6-2.9-2.8.2-1.9.1-3.8.1-6.2z"/></svg>