<svg xmlns="http://www.w3.org/2000/svg" xml:space="preserve" viewBox="0 0 192 192"><path d="M34 50.3c20.6 12.8 42 26.2 63.7 40 2.4 1.5 4.9 3.5 7.5 5.7-1.9 1.9-3.7 3.3-5.4 4.4-25.9 16.5-46.5 29.4-65.8 41.2V50.3m-5.4-15.9c-4 0-6.5 3.3-6.5 9.2v103.7c0 3.8-.1 8 4 9.1.8.2 1.6.3 2.5.3 2.4 0 5.1-.7 7-1.9 23.7-14.6 47.3-29.4 70.8-44.4 3.4-2.2 6.5-5 9.3-8 4.8-5.1 4.7-8.8-.3-13.6-3.4-3.3-7.2-6.3-11.1-8.9-23.3-14.4-46.4-29-69.7-43.4-2.2-1.4-4.3-2.1-6-2.1z"/><path d="M158 49.6c.1 28.9.1 59.4 0 92.7-10.5-6.4-20.8-13-31.7-19.8-.3-.2-.5-.3-.8-.5 1.8-1.5 3.7-3.2 5.4-5.1 12.5-13.6 12.1-30.1-1-43.1-1.5-1.4-3-2.8-4.5-4 .2-.2.5-.3.7-.5 11-6.7 21.4-13.2 31.9-19.7m4.8-15.5c-1.5 0-3.2.5-4.9 1.5-17.7 10.8-35.2 22-53.4 33.3 2.4 1.8 4.2 3.1 6 4.5 3.7 2.9 7.7 5.6 11.1 8.9 8.5 8.4 8.7 17.7.6 26.5-3.1 3.3-6.8 6.1-10.4 8.9-2 1.6-4.2 3-7.2 5.2 18.2 11.4 35.6 22.5 53.2 33.2 1.8 1.1 3.5 1.6 5.1 1.6 4.1 0 7.2-3.4 7.2-8.9.1-35.4.1-70.8 0-106.1-.2-5.2-3.3-8.6-7.3-8.6z"/></svg>