<svg xmlns="http://www.w3.org/2000/svg" xml:space="preserve" id="图层_1" x="0" y="0" style="enable-background:new 0 0 192 192" version="1.1" viewBox="0 0 192 192"><path d="M136.8 43c-9 0-16.3 7.3-16.3 16.3s7.3 16.3 16.3 16.3 16.3-7.3 16.3-16.3h0c0-9-7.3-16.3-16.3-16.3m0-14.3c16.9 0 30.6 13.7 30.6 30.6s-13.7 30.6-30.6 30.6c-16.9 0-30.6-13.7-30.6-30.6s13.7-30.6 30.6-30.6h0z" class="st0"/><path d="M83.8 30.8c-12.4 0-22.4 10-22.4 22.4s10 22.4 22.4 22.4 22.4-10 22.4-22.4v0c0-12.4-10-22.4-22.4-22.4m0-14.3c20.3 0 36.7 16.4 36.7 36.7s-16.4 36.7-36.7 36.7-36.7-16.5-36.7-36.7 16.4-36.7 36.7-36.7c0 0 0 0 0 0zM100.1 110.2c-9 0-16.3 7.3-16.3 16.3v18.3c0 9 7.3 16.3 16.3 16.3h38.6c9 0 16.3-7.3 16.3-16.3v-18.3c0-9-7.3-16.3-16.3-16.3h-38.6m0-14.1h38.7c16.9 0 30.6 13.7 30.6 30.5V145c0 16.9-13.7 30.5-30.6 30.5h-38.7c-16.9 0-30.6-13.7-30.6-30.5v-18.3c.1-16.9 13.7-30.6 30.6-30.6h0z" class="st0"/><path d="M68.4 135.7c0-1.5-.8-2.8-2.1-3.5L43 118.8c-2-1.1-4.4-.4-5.6 1.5-.4.6-.5 1.3-.5 2V149c0 2.3 1.8 4.1 4.1 4.1.7 0 1.4-.2 2-.5l23.4-13.4c1.2-.7 2-2 2-3.5m14.2 0c0 6.6-3.5 12.7-9.2 15.9L50 165c-8.8 5-20 2-25-6.8-1.6-2.8-2.4-5.9-2.4-9.1v-26.7c0-10.1 8.2-18.3 18.3-18.3 3.2 0 6.3.8 9.1 2.4l23.4 13.4c5.7 3.2 9.2 9.2 9.2 15.8z" class="st0"/></svg>