<svg xmlns="http://www.w3.org/2000/svg" xml:space="preserve" style="enable-background:new 0 0 192 192" viewBox="0 0 192 192"><path d="M49.3 22h12.2v47.5c8.5-6.3 14.8-11.8 13.2-22.9-1.1-7.8-.2-16-.2-24.6h12.8v25.9c25.8-16 51.9-24.9 81.2-25.2v12.9c-36.5.8-67.9 14.2-93.1 39.6-25.3 25.4-38.6 56.9-39.7 93.5-2.4.4-4.2.8-6 1-1.9.1-3.8-.1-6.2-.2-.3-2-.9-3.8-.9-5.6 0-43-.1-85.9 0-128.9 0-9.3 3.4-12.7 13.2-12.7v82.3c.8.1 1.5.3 2.3.4 4.8-9.7 12.4-17.8 11.5-30.5-1.1-17.2-.3-34.4-.3-52.5z"/><path d="M113.6 112.7c-10.7 8-10.5 7.9-5.4 18.3 5.9 11.8 8.8 24.2 8.7 37.3-11.7 3.1-11.9 2.6-13.4-7.9-1.1-7.7-3.5-15.1-5.3-22.7-1.3-.1-2.7-.1-4-.2-2.6 10.4-5.2 20.7-8 31.7H75.5c-1.6-49.6 42.7-94.3 92.8-93.6v11.5c-7.1 1.6-13.9 3.1-19.8 4.3 5.9 16.1 11.7 31 16.6 46.1 2.1 6.5 2.8 13.5 3.7 20.3 1.6 11.8.4 12.8-10.7 11.3-3.5-15-6.3-29.8-10.4-44.3-2.3-8.1-6.7-15.7-10.3-23.5-2.3-5-5.9-3.8-9.6-1.5-3.6 2.2-5.2 4.4-2.3 8.6 12.3 17.9 16.5 38.2 17.7 59.4-10.2 3.8-12.7 2.9-13.7-7.1-1.5-17-7.2-32.6-15.9-48z"/><path d="M61.6 169.2H50.2C45.1 120 92 50.4 167.5 49c3.5 10.6 2 13.1-8.3 13.7-45.5 3-88.5 42.7-95.4 88.1-.9 6-1.4 12-2.2 18.4z"/></svg>