<svg xmlns="http://www.w3.org/2000/svg" xml:space="preserve" viewBox="0 0 192 192"><path fill="none" stroke="#000" stroke-linecap="round" stroke-linejoin="round" stroke-miterlimit="10" stroke-width="12" d="M170 119c0 7.6-2.9 14.1-8.7 19.5-5.8 5.4-12.8 8.1-20.9 8.1H56.5c-9.5 0-17.6-3.1-24.4-9.4S22 123.3 22 114.4c0-6.3 1.8-12.1 5.5-17.3 3.7-5.2 8.5-9.2 14.4-11.7-.1-1.3-.2-2.4-.2-3.1 0-10.2 3.9-18.8 11.6-26s17-10.8 27.9-10.8c8.1 0 15.5 2.1 22.1 6.3s11.4 9.7 14.4 16.5c3.6-3 7.9-4.5 12.8-4.5 5.4 0 10.1 1.8 13.9 5.4s5.8 7.9 5.8 13c0 3.6-1.1 6.9-3.2 9.9 6.6 1.4 12.1 4.7 16.4 9.7 4.4 5 6.5 10.7 6.6 17.2h0z"/></svg>