<svg xml:space="preserve" viewBox="0 0 192 192">
  <path stroke="#000" stroke-linecap="round" stroke-linejoin="round" stroke-miterlimit="10" stroke-width="6" d="M50 54H39l-2-1-2-4-5-3-2-4 1-1 9 1 26 2a622 622 0 0 0 99-1c1 2 0 3-2 4l-3 1c-2 1-4 2-4 5l-2 1h-23c-3 0-3 1-3 3l2 8v2c1 2 2 3 5 4h7c3 0 4 2 3 5l-2 2h-9l-2 2 1 8 5 30 5 28v2l-1 3h-4l-3-2-1-6-4-27-3-25-2-8c-1-4-2-5-6-5H71c-2 0-2 2-3 3l-2 18-5 26-3 21v1c0 3-2 4-5 4-3-1-3-1-2-4l1-7 5-30 4-28v-1c1-3-1-4-3-3h-8l-2-2v-3l2-1 5-1h4l4-3 2-10c0-2-1-3-3-3h-3l-9-1zm61 17h7c2 0 2-1 2-3l-1-10c0-2-2-3-4-4h-11c-2 1-3 1-3 4v9c0 3 1 4 4 4h6zm-31 0h7c2 0 3-1 3-3V58c0-2-1-3-4-4H76c-2 1-3 1-4 4l-1 9c-1 3 0 4 3 4h6z"/>
</svg>
