<svg xml:space="preserve" viewBox="0 0 192 192">
  <path d="m64 116-15 7c-1-10-1-10 7-14 6-2 9-6 8-12V82H53c-2 1-4 3-4 6l-11 36c-2 8-2 8-11 6l14-48h-9c-5 0-7-2-6-6v-4h11c4 1 7-1 7-6l2-4 9 1-2 9h29c2 0 3-4 5-6l3-3 1 1v18H74v18l17-8 1 1c1 6-1 11-8 12l-3 2c-8 4-9 5-7 14l3 3a1896 1896 0 0 0 52-2v-13l-4-1h-22l-2-7h64l-1 7h-22l-2 1v13l6 2h17l3 7H74c-7 0-11-3-10-10v-5z"/>
  <path d="M102 80c-1-16-2-14 11-14h9c4 0 7 1 6-5 5 1 9-2 11 4h16c8 0 11 4 10 13-3-1-7 2-10-3-1-2-6-1-9-1l-31 2c-2 0-3 0-5 2-1 2-5 2-8 2zm39 3 14 1h1c8 2 8 2 8 10-10 3-15 0-23-11zm-15 0c-7 8-12 15-24 11l1-8 2-1 21-2z"/>
</svg>
