<svg xmlns="http://www.w3.org/2000/svg" xml:space="preserve" style="enable-background:new 0 0 192 192" viewBox="0 0 192 192"><path d="M169.6 95.5c-.7-12.6-7.1-21.4-19.3-25.3-12.3-4-22.1.3-29.9 10.2-3.2 4.1-5.5 2.6-8.6-.8-13-14.3-34.3-14.6-47.1-1-9 9.6-10.1 21.1-7.2 33.8-15 4.4-17.3 2.7-17.4-11.1-.1-11.1-.1-22.2-.8-33.3-.2-5.1-3.4-9-9.3-8-5.2.9-8 4.1-8 9.9.2 17.2.2 34.5 0 51.7-.1 6.7 3.2 10.3 9.3 10.4 20.2.3 40.3.1 60.5 0 9.7-.1 19.4-1 29.1-.7 8.3.3 11.4-1.7 11.5-9.8.2-8.3-.3-16.7.2-25 .4-6.4 4.4-10.2 10.9-10.1 6.4.2 8.3 4.5 8.3 10.3-.1 8 0 16.1 0 24.2.1 5.9 2.2 10.8 8.7 11.1 7 .4 8.9-5.1 9.1-10.6.5-8.6.5-17.3 0-25.9zm-81.7 18.7c-9.4-.2-13.7-4.5-13.5-13.9.1-9.5 4.6-14.3 13.5-14.1 8.1.2 14.5 6.4 14.5 14.1-.1 7.7-6.7 14-14.5 13.9z" style="stroke:#000;stroke-miterlimit:10"/></svg>