<svg xmlns="http://www.w3.org/2000/svg" xml:space="preserve" viewBox="0 0 192 192"><path d="M32.8 83.8c1.8-4.2 2.9-8.6 5-12.7C46 55 59.9 47.3 77.1 44.3c3.2-.5 4.8 1.3 4.2 4.6-.6 3-1.3 6-1.4 9.1-.1 5.1-.2 5.2 4.9 5.2h64.1c3.2-.1 4.6 1.5 4.6 4.7 0 5.5.1 11 0 16.5-.1 2.5.8 3.3 3.3 3.2 3.5-.1 7 0 10.5 0 3.1 0 4.8 1.4 4.7 4.6v26.2c0 3-1.5 4.5-4.4 4.5-3.1 0-6.2.3-9.3 0-4-.4-5.1 1.2-4.8 5 .3 4.8 0 9.7.1 14.5.1 3.6-1.5 5.1-5.1 5.1-30.1-.1-60.2.7-90.3-.4-19.9-.7-36.9-17.9-38.1-38.3-.5-7.9.9-15.5 3.8-22.9 2.6-6.5 3.3-6.8 8.9-2.1zm30.2 53c3.2.3 6.8-.6 10.4-2 14.8-5.6 20.1-19.1 13.2-33.3-1.5-3.2-3.4-6.1-5.6-8.8-7.8-9.4-11.7-20.1-11.6-32.3 0-2.6-.6-3.4-3.2-2.2-8.3 3.6-14.8 9.2-18.8 17.4-3 6.1-4.7 12.5-5.5 19.3-.5 4.5-2.5 5.4-6.2 3.4-4.1-2.2-4.3-2.1-4.9 2.6-2.5 19.6 12 36 32.2 35.9zm85.3-24.4h2.8c10.9 0 10.8 0 10.4-10.9-.1-2.3-.8-3.1-3.1-3-4.4.1-8.9 0-13.3-.1-10.4 0-10.4 0-10.1 10.4v.8c-.2 2.1.7 2.9 2.8 2.9 3.5-.2 7-.1 10.5-.1zm-36.9-14v-.1c-3.4 0-6.7.1-10.1 0-2.7-.1-3.2 1.1-2.9 3.4 1.3 10.7 1.3 10.7 11.9 10.7h4.4c10.4 0 10.3 0 9.9-10.7-.1-2.4-.7-3.4-3.2-3.3-3.3.1-6.6 0-10 0zm18.4-24.6H127c-10.9 0-10.8 0-10.3 11 .1 2.2.8 3.1 3 3 4.4-.1 8.8 0 13.3 0 10.9 0 10.9 0 10.1-11.2-.1-2-.8-2.9-2.9-2.8h-10.4zm.5 49.3h-3.2c-10.9 0-10.9 0-10.4 11 .1 2.2.8 3.1 3.1 3 5.1-.1 10.2-.1 15.3-.1 7.9-.1 7.9-.1 8-8.2 0-5.7 0-5.7-5.5-5.7h-7.3zM94 73.8h-9.7c-.9 0-2.2-.2-1.7 1.4 1.4 4.3 4 7.9 6.9 11.3 1.8 2.1 4.2 1.3 6.4 1.3 11 .1 10.9 0 10.2-11.1-.1-2-.7-2.9-2.8-2.8-3.1-.1-6.2-.1-9.3-.1zM90.1 137h6.1c10.1 0 10.1 0 9.9-10.2 0-1.4.7-3.7-1.8-3.6-2.1 0-4.7-1.3-6 1.7-1.8 4.1-4.5 7.7-8.2 12.1z"/></svg>