<svg xml:space="preserve" viewBox="0 0 192 192">
  <path d="m99 161-3-1A64 64 0 0 1 65 41l2-2 2 4v2l8-13 3-4-12-3-6-1 2 6a74 74 0 0 0-42 66c0 20 8 38 22 52s32 22 52 22c2 0 5-2 5-5l-2-4zm71-65c0-20-8-38-22-52a73 73 0 0 0-52-22c-2 0-5 2-5 5s3 5 5 5a63 63 0 0 1 64 64c0 23-13 44-33 55l-2 2-2-4v-2l-8 13-3 4 18 4-2-6c25-12 42-38 42-66z"/>
  <path d="M86 67c3 0 5 3 5 5v48c0 2-2 5-5 5s-5-3-5-5V72c0-2 2-5 5-5zm20 8c3 0 5 2 5 5v32c0 3-2 5-5 5s-5-2-5-5V80c0-3 2-5 5-5zm20 11c3 0 5 2 5 5v10c0 3-2 5-5 5s-5-2-5-5V91c0-2 3-5 5-5zm-60 0c2 0 5 2 5 5v10c0 3-3 5-5 5s-5-2-5-5V91c0-2 2-5 5-5z"/>
</svg>
