<svg xmlns="http://www.w3.org/2000/svg" xml:space="preserve" style="enable-background:new 0 0 192 192" viewBox="0 0 192 192"><path d="M102.6 16.3c-2.2-.2-4.4-.3-6.6-.3-2.3 0-4.5.1-6.6.3-.8.1-1.6.1-2.5.2V62c0 2.2 1.8 4.1 4.1 4.1h9.5c2.2 0 4-1.8 4-4.1V16.5l-1.9-.2m10.7 1.6v48.4c-.1 1.7-1.5 3-3.1 3.2H101c-.9 0-1.8.4-2.5 1.1-.7.7-1 1.6-1 2.5V98c0-1.9 1.4-3.4 3.3-3.6h18.1c1.2-.1 2.2-.8 2.8-1.9.1-.2.1-.3.2-.5.1-.1.1-.2.1-.3 0-.1.1-.2.1-.2V39.9c20.8 10 35.2 31.4 35.2 56.3 0 31.4-22.9 57.4-52.8 61.7v-35h14.4c1.8-.2 3.2-1.7 3.2-3.5v-25c0 2-1.5 3.6-3.5 3.6H101c-.9 0-1.8.4-2.5 1.1-.7.7-1 1.6-1 2.5V123H94v-21.4c0-1.9-1.5-3.5-3.4-3.6H73c-2 0-3.5-1.6-3.5-3.6v25c0 1.9 1.4 3.4 3.2 3.5H87v34.9c-29.8-4.3-52.8-30.2-52.8-61.5 0-24.8 14.4-46.2 35.2-56.2V91c0 .2 0 .4.1.6v.2c0 .1.1.2.1.3 0 .2.1.4.2.5h.1c.5 1.1 1.6 1.8 2.8 1.9h18.1c1.8.1 3.3 1.7 3.2 3.5V73.2s-1.6-3.5-3.5-3.7v.2h-9.1c-1.7-.3-3.2-3.3-3.2-3.3V18c-35.1 8.2-61.3 40-61.3 78 0 44.2 35.4 80 79.1 80 43.7 0 79.1-35.8 79.1-80 0-38.2-26.4-70.1-61.8-78.1"/></svg>