<svg xml:space="preserve" viewBox="0 0 192 192">
  <path d="M44.5 145.7c-6.4 0-10.6-6.6-7.4-12.7 5.8-11 12.2-21.7 18.5-32.4 4.5-7.5 8.7-15.2 13-22.8 5.5-9.5 10.9-19.1 16.6-28.6 2.6-4.3 8.4-5.1 12.4-2.2 5 3.6 5.5 8.4 1.6 14.5-7.3 11.3-13.5 23.3-20.3 34.9-5.6 9.6-11.3 19.1-16.9 28.7-2.9 5-5.7 10.1-8.5 15.2-1.9 3.5-4.5 5.6-9 5.4zm5 .2c.5-.3 1-.8 1.5-.9 3.3-.4 1.8-6.6 6.9-5.3 3.2.8 6.7-.6 10-1.1 6.8-1 12.4-4.2 17.3-8.9 5.1-4.9 10-9.9 16.4-13.1 5-2.5 10-4 15.5-1 4.9 2.7 5.1 7.7 4 12.7-.1.7-.5 1.3-.8 2-2.4 7.2-.7 9.5 7.2 9.5 8.5 0 16.9.1 25.4-.1 2.8-.1 3.2 1 3.2 3.4 0 2.5-.5 3.4-3.2 3.4-8.7-.2-17.3-.1-26-.1-2.7 0-5.3-.6-7.8-1.5-5.6-2-7.9-7.4-6.3-13.4.7-2.5 2.1-4.6 2.2-7.3.1-2.5-1.1-3.3-3.3-3.5-3.5-.4-6.4 1.3-9.2 3.1-4.4 2.7-8.3 6.2-11.9 9.9-7.5 7.7-16.7 11.4-27.4 12.2-4.6.5-9.1.6-13.7 0zm.4-55.3c-3.9.1-5.6-2.8-3.8-6.1 3.4-6.3 7-12.4 10.6-18.6 2.5-4.4 5.1-8.9 7.5-13.3 1.1-2 2.2-3.5 4.8-3.5 2.9 0 4.9 3.4 3.5 5.8-4.7 8-9.2 16.1-13.8 24.1-1.8 3.2-3.8 6.3-5.5 9.5-1 1.7-2.4 1.8-3.3 2.1z"/>
</svg>
