<svg xmlns="http://www.w3.org/2000/svg" xml:space="preserve" viewBox="0 0 192 192"><path d="M95.9 66.9h-41c-12.6 0-20.4-8-20.4-20.6 0-2.7-.2-5.4.2-8.1 1.4-9.2 9.1-16 18.5-16.1 28.4-.1 56.9-.1 85.3 0 10.8 0 18.8 8.3 19 19.2v4.8c0 13-7.8 20.8-20.7 20.9-13.6-.1-27.2-.1-40.9-.1zm-.4-13.4h41c5.8 0 7.6-1.8 7.6-7.7v-2.9c-.1-5.6-1.9-7.5-7.4-7.5H55.1c-6 0-7.4 1.9-7.4 9.4 0 6.9 1.5 8.7 7.6 8.7 13.5.1 26.9 0 40.2 0zM96 73.6h41c12.6 0 20.5 7.9 20.5 20.5 0 1.9.1 3.8 0 5.7-.4 10.4-8.3 18.5-18.7 18.5-28.6.2-57.2.2-85.8 0-10.4-.1-18.2-8.2-18.6-18.6-.1-2.4-.1-4.8 0-7.1.3-10.8 8.3-18.9 19.2-19 14.2-.1 28.3 0 42.4 0zm-.5 31.5H136c6.6 0 8.1-1.7 8.2-8.7 0-7.6-1.4-9.4-7.9-9.4H55.8c-6.5 0-8 1.8-7.9 9.4 0 7 1.6 8.7 8.1 8.7h39.5zM96.1 125.1h41c12.6.1 20.4 7.9 20.5 20.6 0 1.9.1 3.8 0 5.7-.5 10.4-8.3 18.4-18.7 18.5-28.6.2-57.2.2-85.7 0-10.4-.1-18.2-8.2-18.6-18.6-.1-2.4-.1-4.8 0-7.1.3-10.9 8.3-18.9 19.2-19 14-.2 28.1-.1 42.3-.1zm-.2 31.5h40c6.8 0 8.3-1.7 8.3-9 0-7.4-1.5-9.1-8.3-9.1h-80c-6.5 0-8.1 1.8-8.1 8.8 0 7.6 1.4 9.3 8 9.3h40.1z"/><path d="M65.8 44.7c0 3.6-3.1 6.6-6.7 6.6-3.7 0-6.6-3-6.6-6.7s3-6.6 6.7-6.5c3.6 0 6.6 3 6.6 6.6zM106.6 44.6c-.2 2.3-1.2 3.8-3.5 3.9-2.2.1-3.6-1.1-3.8-3.4-.1-2.3 1.1-3.7 3.3-3.8 2.3-.2 3.5 1.2 4 3.3zM117.4 44.8c-.3 2.3-1.6 3.6-3.8 3.4-2.2-.1-3.6-1.5-3.4-3.8.1-2.2 1.5-3.5 3.8-3.4 2.2.2 3.3 1.6 3.4 3.8zM124.7 41.1c2.1.2 3.4 1.5 3.3 3.7-.1 2.3-1.5 3.5-3.7 3.4-2.2-.1-3.6-1.5-3.5-3.7.1-2.1 1.5-3.4 3.9-3.4zM59 102.6c-3.7.1-6.7-2.8-6.7-6.6 0-3.5 2.7-6.4 6.2-6.6 3.7-.2 6.8 2.6 7 6.3.1 3.8-2.8 6.8-6.5 6.9zM106.6 96.3c-.4 2.4-1.6 3.8-3.8 3.7-2.4-.1-3.7-1.6-3.5-4.1.2-2.2 1.7-3.4 3.9-3.2 2.3.2 3.1 1.8 3.4 3.6zM113.8 99.9c-2.1-.2-3.6-1.3-3.7-3.5-.1-2.2 1.1-3.6 3.4-3.7 2.5-.1 3.9 1.2 3.9 3.6 0 2.2-1.5 3.3-3.6 3.6zM124.4 92.6c2.2.1 3.5 1.2 3.6 3.4.1 2.2-1.1 3.7-3.3 3.8-2.4.2-3.9-1.3-4-3.7.1-2.1 1.4-3.3 3.7-3.5zM58.7 154.3c-3.7-.1-6.6-3.2-6.4-6.9.1-3.7 3.2-6.5 6.9-6.3 3.5.2 6.2 3.1 6.2 6.6.1 3.7-3 6.7-6.7 6.6zM106.7 147.9c-.3 2.2-1.5 3.8-3.9 3.7-2.1-.1-3.5-1.4-3.5-3.6s1.1-3.6 3.3-3.8c2.4-.1 3.6 1.4 4.1 3.7zM117.5 147.7c-.2 2.5-1.7 3.8-4 3.7-2.1-.1-3.5-1.5-3.5-3.7.1-2.4 1.5-3.7 4-3.6 2.2.1 3.3 1.5 3.5 3.6zM128 147.2c.1 2.7-1.2 4.1-3.3 4.2-2.4.2-4-1.4-4-3.8 0-2.1 1.3-3.5 3.6-3.5 2.4 0 3.6 1.2 3.7 3.1z"/></svg>