<svg xmlns="http://www.w3.org/2000/svg" xml:space="preserve" viewBox="0 0 192 192"><path d="M67.9 114.7c-2.6 2.4-4.7 4.7-7.1 6.7-4.9 4.1-10.5 7.1-17 7.7-12.3 1.2-22.1-7-23.6-19.7-2.1-18.2 10.9-39 28.2-45.2 11.4-4 21.5-.2 27.2 10.7 1.2 2.3 1.9 2.5 3.6.5 4.4-5 9.7-8.9 16.1-11.2 11.4-4.1 21.8-.2 27.3 10.6 1.4 2.7 2.2 2.2 3.8.4 6.4-6.9 13.8-12.1 23.7-12.4 11.5-.3 20.3 7.7 21.8 19.6 2.1 17.6-10.2 38.4-26.8 44.9-12.1 4.8-22.5 1-28.6-10.5-1.1-2.1-1.8-2.2-3.3-.5-4 4.5-8.6 8.2-14.1 10.6-12.7 5.5-23.5 1.6-29.8-10.6-.5-.5-.9-.9-1.4-1.6zm94.6-24.6c0-16.5-9.4-22.1-21.1-15.2-11.3 6.7-17.7 16.8-18 30.1-.4 13.2 9.2 19 20.7 12.5 11.7-6.7 17.4-17.2 18.4-27.4zM76.4 102c0 12.2 4.1 17.7 11.4 17.9 3.6.1 7-.9 10-2.8 11.2-7.2 17.6-17.3 17.7-30.7.1-12.3-8.9-17.9-19.9-12.2-12.2 6.4-18 17.1-19.2 27.8zm-17.1-3.9c-.2 1.9-.3 3.7-.5 5.4-.1 1.4-.7 3.2 1.3 3.7 1.6.4 2.3-1.1 3-2.2 3.7-6.1 5.9-12.6 5.6-19.9-.5-10.4-8-15.5-17.8-12-13.2 4.9-23.5 22.3-21.2 36.2 1.3 7.9 7 11.8 14.9 10.3 2.3-.5 4.4-1.2 6.4-2.5 1.5-.9 4-1.5 3.2-4-.6-2.2-2.8-1.6-4.5-1.7-5.3-.1-9.1-2.7-10.2-7.5-1.2-5-1.2-10.2 0-15.2 1.2-4.8 5.3-7.5 10.3-7.2 4.7.2 8.3 3.4 9 8.3.4 2.8.3 5.6.5 8.3zm-8.5-1.6c0-2 0-4-.1-6-.1-1-.6-1.9-1.8-1.8-.9.1-1.5.8-1.5 1.6-.1 4-.1 8.1 0 12.1 0 1 .6 1.9 1.8 1.7 1.1-.1 1.5-1.1 1.6-2v-5.6z"/><path d="M144.4 110.3c-2.5.2-4-1-3.6-3.7.9-7-1.8-12.9-4.8-18.8-.7-1.4-2.3-3.3-.1-4.6 2-1.2 4.2-.7 5.8 1.3.5.6.9 1.3 1.3 2 1.5 2.6 2.9 2.5 4.2-.2.5-1 1-2 1.8-2.6 1.6-1.4 3.6-1.5 5.3-.5 1.6 1.1.6 2.7 0 4-3.4 6.2-6.2 12.5-5.3 19.9 0 2.8-2.1 3.3-4.6 3.2zM94.3 96.7c0 1.9-.1 3.8 0 5.6 0 .8.4 1.6 1.4 1.8.9.2 1.5-.3 1.9-1.1.5-1 .8-2.1 2-2.4 1.8-.6 3.9-.9 5.4.5 1.6 1.4.7 3.3-.1 4.9-1.7 3.5-5.7 5.7-9.6 5.4-4.2-.3-7.9-3.1-8.8-7.2-1.1-5.2-1.2-10.5 0-15.6 1-4.1 4.4-6.7 8.4-7 4.5-.4 8.2 1.6 10 5.4.8 1.7 1.8 3.8-.4 5-1.9 1.1-4.2 1.1-6-.6-1-.9-1-3.3-3-2.5-1.8.7-1.2 2.8-1.3 4.3-.1 1.2 0 2.4 0 3.6 0-.1.1-.1.1-.1z"/></svg>