<svg xmlns="http://www.w3.org/2000/svg" xml:space="preserve" style="enable-background:new 0 0 192 192" viewBox="0 0 192 192"><path d="M49.9 20.2c2.4.4 5 .5 7.4 1.1 5.1 1.2 8.2 5 8.4 10.3.1 2.7 0 5.5 0 8.5v1h3.4c8.1.4 16.3.4 24.4.4 2.2 0 3 .6 2.5 2.8-.4 1.8-.5 3.7-.9 5.6-1 5.6-4.2 8.3-9.9 8.3-5.5.1-11 .1-16.5 0-1.9 0-2.6.4-2.6 2.4.1 3.7.4 11.4.4 11.4v1h30.7c-.9 3.9-1.3 7.5-2.4 10.8-1.4 4-4.7 6-9 6H66.2c-.1.9-.1 1.7-.1 2.5 0 19.9 0 39.9-.1 59.8 0 2.4.8 3 3.1 3 27.6-.1 55.1-.1 82.7.4H172.9c3.4-.5 3.4-.3 2.5 3.2l-1.8 6.9c-1.3 4.7-3.2 6.1-8.1 6.1H28.6c-8.5 0-12.4-4-12.5-12.5 0-11.1 0-22.1-.2-33.2l.9-16.6v.5c0-2.6.2-2.6 3-2.1 1.6.2 3.2.5 4.8.7 5.7.8 9 4.6 9.1 10.4v24.4l.9 7.7v.4c-.5 3.5-.3 3.7 3.5 3.3H40c2.3.4 4.6.4 6.9.5 1.3 0 1.9-.4 1.9-1.8-.2-20.9-.4-41.9-.7-62.8 0-.2-.1-.3-.3-.8H30.6c-7.5 0-10.6-2.5-12.1-9.8-.2-.9-.3-1.8-.6-2.6-.9-3.8 1.4-4.3 1.4-4.3h2.1c8.1 0 16.2-.1 24.3 0 1.9 0 2.7-.4 2.6-2.4-.1-4.1 0-8.2 0-12.7H39.6c-4.1 0-8.2.1-12.4 0-4.7-.1-8.8-3.5-9.7-8.2-.4-1.9-.6-3.8-1.1-5.7-.5-2.1.1-3 2.4-3 8.5.1 17.1 0 25.6 0h2.7c.1-1 .2-1.9.2-2.8 0-5.3.1-10.6 0-15.9.1-1.9.8-2.5 2.6-2.2zm47.9 94.6c0 6.2.2 12.5-.2 18.7-.2 4.4-2.9 7.6-7.2 8.6-2.9.7-6.1.4-9.4.6 0-7.1-.3-13.5.1-19.9.2-4.2 2.9-7.2 6.9-8.3 2.6-.7 5.3-.9 8-1.3 1.3-.3 1.8.4 1.8 1.6zm73.6-5.3c-.1 3.1 0 6.2 0 9.2v2.3c0 3.5.1 7.1 0 10.6-.1 7-4.5 11.3-11.4 11.4-3 0-6.1.1-9.1 0-.8 0-2-.5-2.4-1.2-.3-.4.3-1.7.9-2.2 4-3.6 5.3-8.1 5.2-13.3-.1-2.6 0-5.2 0-7.9.1-5.5 2.8-8.9 8.2-10.1 2.1-.5 4.2-.6 6.3-1 1.9-.5 2.3.4 2.3 2.2zm-2.2-73.8v42.8c0 7.6-4.1 11.7-11.8 11.7-8.9.1-17.9.1-26.8 0-2.2 0-2.8.6-2.8 2.8.1 12.3 0 24.6 0 36.9 0 7.5-3.3 11.2-10.7 12.1-7.3.9-7.3.9-8-6.6l.9-11.7v-11.6h-.3V85.5c0-7.7 4.2-11.8 11.9-11.8h27.1c3.3 0 3.7-.4 3.7-3.7V53.5c0-3-.4-3.4-3.5-3.4-8.9 0-17.9-.2-26.8 0-6.5.1-11.8-3.9-11.9-10.9 0-5.9-.4-5.9 5.5-5.9 11.1 0 22.2.2 33.2-.1 5.1-.1 10.1-.9 15.1-1.6 4-.5 5.2.2 5.2 4.1z"/></svg>