<svg xmlns="http://www.w3.org/2000/svg" xml:space="preserve" viewBox="0 0 192 192"><path d="M56.3 132.6c-9 0-18 .1-27.1 0-5.6 0-7.1-1.6-7.2-7.2-.1-6.4-.1-12.9 0-19.3 0-2.1-.7-5.1 2.7-5.1 3.3 0 6.1 1.2 6.2 5.2.1 4.2 0 8.4.1 12.6 0 1.8-.7 4.5 2.1 4.5 2.8-.1 2-2.8 2-4.6.1-6.9 0-13.9.2-20.8.2-3.9-1.5-5.2-5.1-4.9-3.7.3-7.2 0-8-4.8-.4-2.6.4-4.1 3.1-4.2 1.4-.1 2.9 0 4.3 0 2.6-.1 5.7.7 5.6-3.8-.1-4.1-2.9-3.6-5.4-3.6-3.1 0-5.9-.1-6.7-4-.6-2.9 0-4.8 3.4-4.9 1.4 0 2.9-.1 4.3 0 3 .2 4.5-.9 4.3-4.2-.1-2.2-.4-4.9 3-4.9 2.9.1 5.7 1.1 5.8 4.5.1 3.7 1.6 4.7 5.1 4.5 2.3-.1 5.7-1 5.5 3.3-.2 3.6-2 5.7-5.9 5.5-2.9-.2-4.6.5-4.5 3.9 0 3.8 2.5 3.4 4.9 3.4h1.9c2.1.1 4.6-.1 4.5 2.9-.1 2.6-.7 5.2-3.9 5.9-.6.5-1.5.6-2.5.5-3.2-.3-4.6.9-4.6 4.4 0 3.7 1.9 4 4.9 4.2 2.5.1 6.5-1.6 6.5 3.3 0 4.2-2.6 6.1-6.7 5.6-3.7-.4-5 1.3-4.6 4.7.1.8.1 1.6 0 2.4-.6 4.5 1 6.2 5.8 6.1 11.4-.4 22.9-.2 34.3-.1 2.4 0 5.8-.9 5.6 3.2-.1 3.6-1.7 6.1-5.9 6.1-9.3-.1-18.7 0-28 0v-.3zM136.6 113.4c-6.4 0-12.9.1-19.3 0-6.6-.1-9.7-3.2-9.9-9.8-.2-5.8 0-11.6-.1-17.4-.1-3.6 1.6-4.9 5-4.8 3.4.1 6.8-.2 10.1.1 3.7.3 5.3-1 5.1-4.9-.3-4.2-.1-8.4 0-12.5.1-2.2-.8-5.4 3-5.3 3.4.1 6.6.9 6.6 5.3.1 4.2.2 8.4 0 12.5-.2 3.9 1.3 5.1 5.1 4.9 6.4-.2 12.9 0 19.3-.1 3.3 0 4.7 1.4 4.6 4.6-.1 6 .1 11.9-.1 17.9-.2 6.5-3.2 9.3-9.7 9.4-6.5.2-13.1.1-19.7.1zm-.3-9.8c4.8 0 9.7-.2 14.5.1 4.1.2 5.6-1.5 5.2-5.4-.1-1.1-.1-2.3 0-3.4.2-3-1.3-3.9-4.1-3.9-10.1.1-20.3.2-30.4 0-4-.1-4.6 2.1-4.3 5.2.3 3-1.5 7.4 4.2 7.4h14.9z"/><path d="M59 103.3V90.7c0-3.7 1.9-5.7 5.6-5.7 3.5 0 7.1-.2 10.6 0 4.4.2 3.9-2.9 3.8-5.6-.1-2.6 1.2-6.3-3.7-6.1-3.4.1-6.8 0-10.1 0-2.9 0-4.8-1.4-5.6-4.3-.8-3.2-.2-5.1 3.5-5h20.3c3 0 4.5 1.2 4.5 4.3-.1 6.6 0 13.2-.1 19.8-.1 4.1-2.4 6.1-6.5 6.2h-2.4c-10.5.1-10.5.1-10.5 10.4v9.7c-.1 3.2-1.6 5.1-4.8 5.7-3 .6-4.7-.4-4.7-3.6.1-4.6 0-8.9.1-13.2zM152.3 75.5H146c-2.2 0-4.9.3-5-3-.1-3.1.5-6.6 4.4-6.9 5.7-.4 11.5-.3 17.3-.2 2 0 2.8 1.5 2.6 3.3-.3 2.9-.7 6.1-4.4 6.5-2.8.3-5.8.1-8.6.1v.2z"/><path d="M87.9 109c0 2.3.1 4.5 0 6.8-.1 2.7-1.3 4.5-4.2 5.1-5.3 1-6.1-.2-5.2-5.3.7-3.6.4-7.4.5-11.1 0-2.5.9-4.4 3.4-5.2 3.2-1 5.5-.6 5.4 3.5.1 2 .1 4.1.1 6.2zM113.8 125.4c0 .8.1 1.6 0 2.4-.2 2.2.9 5.4-2.9 5.3-3.3-.1-7-.4-7.5-5-.2-2.2-.2-4.5-.1-6.7.1-2.3-1-5.5 3.1-5.8 4.2-.2 6.8 1.9 7.2 5.9.1 1.3 0 2.6 0 3.8.1.1.2.1.2.1zM160.2 123.8v-3.4c.1-2.1-.2-4.7 2.9-4.6 2.9.1 6.2.3 6.7 4.1.4 3.5.2 7.1.2 10.6 0 1.6-.9 2.9-2.7 2.6-2.6-.5-5.8-.2-6.7-3.6-.5-1.8-.3-3.8-.5-5.7h.1zM132.5 127.1c-.7 2 1.6 6-3.3 6.2-5 .2-7.3-2.1-6.9-7.5.2-2.7-2-7.1 3.5-7.2 5.1-.3 6.6 1.8 6.7 8.5zM151.3 127.2c-.5 2.1 1.6 6-3.4 6-4.8 0-7-2-6.7-7.2.1-2.7-2.2-7.1 3.1-7.5 5.2-.5 6.8 1.6 7 8.7z"/></svg>