<svg xmlns="http://www.w3.org/2000/svg" xml:space="preserve" style="enable-background:new 0 0 192 192" viewBox="0 0 192 192"><path d="M128.6 175.1c-7.1-1.1-14.1-2.6-21.2-3.2-4.7-.4-9.8-.8-14.2.6-13.9 4.3-27.7 4.8-41.5.8-5-1.5-9.5-4.8-14.1-7.4-1-.5-1.8-1.8-2.7-1.9-6.2-.6-7-4.9-7-9.8 0-2.3.2-4.7-.4-6.8-.6-2.1-2.1-4-3.2-5.9-1.8-3.2-4.7-6.1-5.4-9.5-2.6-11.5.1-22.3 5.9-32.4 1.7-2.9 2.5-6.3 3.9-9.3.9-2.1 1.6-4.8 3.2-5.8 7.2-4.7 8.7-12.3 10.2-19.6 2.8-12.8 8.3-24.1 17.6-33.2C76.5 15.3 97 13.4 118.5 19c21.9 5.7 33.6 21.2 38.4 42.7.9 4.2 2.8 8.3 4.2 12.4.5 1.5 1.2 3.1 1.1 4.7-.5 7 1.9 13.1 5.2 19 5.3 9.5 8.4 19.7 6.1 30.5-1 4.7-4.2 8.9-6.3 13.4-.7 1.5-1.7 3-2.1 4.6-.4 1.7-.6 3.6-.3 5.4 1.4 9.5-4.6 14.3-11.7 18.3-7.7 4-15.9 4.7-24.5 5.1zm24.8-53.7h-.8c0-7.2.1-14.3 0-21.5-.1-4.2-.8-8.4-4.9-10.6-16.7-8.9-28.9-11.6-43.9-1.1-5.7 4-10.5 3.7-16.2-.5-6.1-4.6-13-7.4-20.5-6.1-6.4 1.1-12.6 3.3-18.7 5.6-6.2 2.3-9 7-9 13.7.1 13.7-.2 27.4-.2 41.1 0 7.1 1.6 8.4 8.5 7.2 14.8-2.6 29.1-1.6 43.1 4.5 2.8 1.2 7.1 1.4 9.8.2 14.8-6.3 29.9-7.4 45.5-4.5 5 1 7-.8 7.2-5.9.2-7.4.1-14.7.1-22.1zm-9-47.7c1.6-10.3-6.8-29.6-16.5-35.8-16.2-10.4-33.8-11.5-50.7-2.8C63.1 42.5 57 56 55.2 71.5c6.3-.3 12.1-.6 17.9-1 1-.1 0-4.5 1-4.9 2.2-.8 6.3 1.5 8.6 1.5 8.2.2 15.5 1.6 23.8.8 11.9-1.2 23.3-5.7 18.7 2 4.9 3.7 12.3 2.7 19.2 3.8zm-84.7 85.7c0 .8-.3 1.5-.3 2.3 6.8 3.1 10.8 3 18.5.5 2.8-3.5-2.2-1.7-2.2-2.5-7.2-.5-8.7.2-16-.3zm78.2 1.1v-1.1H121v1.1c7.9 5.3 13.5 3.1 16.9 0z"/><path d="M113.9 58.1c-3.5-.1-6.2-2.9-5.9-6.3.3-3.5 2.4-5.6 6-5.8 3.3-.2 6.2 2.8 6.2 6.2 0 3.3-2.8 6-6.3 5.9zM83.4 58.1c-3.7-.4-5.8-2.4-5.9-6-.1-3.4 2.9-6.3 6.2-6.2 3.4.1 6.1 3.1 5.8 6.6-.3 3.6-2.6 5.4-6.1 5.6z"/></svg>