<svg xmlns="http://www.w3.org/2000/svg" xml:space="preserve" style="enable-background:new 0 0 192 192" viewBox="0 0 192 192"><path d="M44.5 136.7c.1 2.4-2.3 4.2-4.6 3.6-12-3.4-20.5-13-23.3-26.6-2.7-13.2 3.3-28.4 15.3-35.3 5.7-3.3 8.1-7.2 10-13.3 9.4-30.1 46.9-39.6 69.9-17.9 3.9 3.7 7.2 5.8 13 5.5 13.5-.5 24.3 7.9 29.4 20.5 1.5 3.8 4.2 7.6 7.4 10 10.6 7.9 16.4 20.5 13.8 32.5-2.3 11-8.4 18.9-18.3 23.3-3.3 1.5-6.5-2.2-4.6-5.3 1.7-2.7 3.4-5.2 5.2-7.6 12.3-15.4 8.7-29.5-9.9-37-.2-.1-.5-.2-.7-.3-1.2-.6-2-1.8-2.1-3.2-.4-9.4-4-16.8-13.7-21.3-6.8-3.1-9.3.7-12.2 4.7-1.7 2.3-5.3 1.9-6.3-.8-.4-1.1-.9-2.1-1.3-3.1-5.8-11.6-15.3-18.1-28.2-18.4-12.6-.3-22.3 5.5-28.5 16.5-3 5.3-4.9 10.2 2.5 13.9h.1c3.5 1.8 1.7 7.2-2.3 6.8-.3 0-.7-.1-1-.1-11.1-1.1-21.8 5.5-25.4 15.6-3.7 10.4-.2 22.6 9.5 28 4.6 2.6 6.2 5.6 6.3 9.3z"/><path d="M136.2 121.2c-3.2 4.3-5.4 6.5-7.3 9.1-2.1-2.8-3.7-5-5.6-7.4-2.1 2.6-3.9 4.7-5.9 7.1-2.2-2.7-3.9-4.8-5.7-7.1-1.9 2.7-3.4 4.7-4.4 6.1-5.3-4.7-10.3-9-15.2-13.3-9.4-8.3-23.4-7.8-32.2 1.1-8.5 8.6-8.8 22.3-.6 31.5 8.2 9.3 23.9 11.6 31.7 2.2 6.8-8.3 14.3-7.9 22.8-7.9 4.8 0 9.6-.5 14.2.1 6.6.9 7.6-4.4 12-7.7 2.3-1.6.6-8.4-3.8-13.8zm-65.6 19c-9.2 0-9.2-14.3 0-14.3 9.1 0 9.1 14.3 0 14.3z" style="stroke:#000;stroke-width:.5;stroke-linecap:round;stroke-linejoin:round;stroke-miterlimit:10"/></svg>