<svg xmlns="http://www.w3.org/2000/svg" xml:space="preserve" viewBox="0 0 192 192"><path d="M157.7 74.1c.5 15.6 0 31.4-6.1 46.3-9 22-24 38.1-46 47.5-6.4 2.8-12.6 2.9-19 0C55.7 154 38.9 130 35 96.8c-1.6-13.2-.4-26.5-.6-39.8-.1-6.2 2.4-10 8.3-12.5 16-6.7 31.8-13.9 47.6-21.1 4-1.8 7.7-1.8 11.7 0 16.1 7.3 32.2 14.5 48.4 21.5 5.2 2.2 7.5 5.7 7.4 11.2-.1 5.8-.1 11.8-.1 18zm-15.8 6V63.7c0-3.8-1.8-6.4-5.4-8-11.7-5.2-23.4-10.4-35.1-15.7-3.7-1.7-7.2-1.6-10.8.1-11.4 5.2-22.8 10.3-34.3 15.3-4.3 1.9-6.3 4.9-6.2 9.4.1 9.2-.4 18.5.2 27.7 1.6 24.7 12.8 44 33.6 57.6 8.3 5.4 16.1 5.3 24.4 0 10.8-7 19.1-16 25.2-27.2 7.3-13.7 9.4-28.4 8.4-42.8z"/></svg>