<svg xmlns="http://www.w3.org/2000/svg" xml:space="preserve" style="enable-background:new 0 0 192 192" viewBox="0 0 192 192"><path d="M91.1 127.9c-6.4.1-12.3.7-16.4-4.7-2.7-3.5-4.9-7.1-2.8-11.6 2.1-4.7 5.7-7.8 11.1-8.1 4.8-.3 9.6-.1 14.5-.1 15.6-.1 26-8.3 28.9-23.7 2.1-11.6 1.7-23-8-31.8-5.8-5.2-13-6.8-20.4-7.6-1.6-.2-3.6.4-4.3-1.7-.7-2 1.1-3 2.2-4.1 4.4-4.7 9-9.4 13.4-14.1 1.8-1.9 3.5-2.3 6-1.4 31.5 11.9 45.9 49 30.6 79-5 9.9-12.9 16.8-22.3 22.4-11.7 6.6-17.7 6.7-32.5 7.5zM65.4 66.7c-1.1 21.1 0 42.2-.9 63.3-.5 11.1-.5 22.3-.8 33.4-.1 5.3-3.5 9-7.7 11.5-3.4 2-7 1.1-9.4-1.8-3.5-4.1-6.3-8.8-6.4-14.6-.2-29.2 1.4-58.4.7-87.7-.1-3.5 1.3-4.7 4.8-4.9 5.1-.3 10.2-1.1 15.1-2.7 4.4-1.3 4.9-1 4.6 3.5zM96.2 16.1c2 .6 5.3-1.4 6.7 1.4 1.5 3.1-1.9 4.7-3.7 6.5-8.6 8.7-17.4 17.1-27 24.7-7.6 6-16.7 7.5-25.4 10.1-2.9.8-3.9-1.6-3.4-3.8 1.3-5 3-9.6 8.8-11.5C60.9 40.6 68 34.8 74.9 29c3-2.5 5.8-5.2 8.7-7.9 5.3-5 5.3-5 12.6-5z"/></svg>