<svg xmlns="http://www.w3.org/2000/svg" xml:space="preserve" style="enable-background:new 0 0 192 192" viewBox="0 0 192 192"><path d="M76.8 107.2c0-15.5-.2-31 .1-46.4.1-4.9-1.5-6.8-6.5-6.6-5.9.3-11.9.2-17.8 0-9.7-.2-14.7-5.4-15-15.4-.3-10.4 3.7-16 13.6-16.3 19.6-.6 39.3-.4 58.9-.5 10.3 0 20.6-.2 30.9.5 9.3.6 13.7 6.3 13.5 16-.2 9.4-5.3 15.2-14.3 15.7-5.7.3-11.5.4-17.2 0-6-.4-7.9 1.7-7.9 7.7.3 29 .1 57.9.1 86.9 0 2.8 0 5.6-.4 8.3-1.2 9.1-5.4 12.7-14.6 12.8h-7.7c-10.4-.1-15.3-4.7-15.4-15.2-.4-15.7-.3-31.6-.3-47.5z"/></svg>