<svg xmlns="http://www.w3.org/2000/svg" xml:space="preserve" viewBox="0 0 192 192"><path d="M100.9 158.8H71.8c-25.5-.1-47.5-20.2-49.6-45C20 87.4 38.8 62.7 64.3 58.7c9-1.4 17.9-.1 26.6 2.3 2.5.7 4.1.6 5.9-1.5 8.9-10.2 21.1-13.2 32.8-8.4 11.5 4.7 18.3 15.5 17.7 28.5-.1 2.4 1.3 3 2.8 4.1 12.4 9.1 20.3 20.7 20 36.8-.4 20.5-17.2 37.7-37.7 38.2-10.6.3-21 .1-31.5.1zm-.3-13.6c10.5 0 21 .4 31.4-.2 14.7-.8 25-12.8 24.1-27.3-.8-14.1-12.2-25.2-25.8-25.1-6.3.1-8.1 1.9-7.7 7.8.2 2.6.6 5.1 0 7.7-.8 3.3-2.5 5.6-6.1 5.8-3.5.3-5.8-1.8-6.8-4.9-.9-2.7-1.2-5.6-1.8-8.4-4.3-19.7-23.5-32.4-42.8-28.2C47 76.5 34.8 93 36.2 111.8c1.4 18.8 15.7 32.5 35.2 33.3 9.7.5 19.4.1 29.2.1zm29.2-66.4c6.2.2 6.8-.6 4.8-6.5-3.5-10.5-15.9-14.8-25.1-8.7-5.4 3.5-5.5 5-1.2 9.6.8.9 1.7 1.7 2.4 2.7 2.8 3.8 6.4 5.2 11.1 3.9 2.5-.6 5.3-.6 8-1zM133.5 43.8c1.2-3.3 2.9-7.1 6.2-10 1.2-1.1 2.9-.9 4.2.1 1.4 1.1 2.5 2.4 1.7 4.3-1.5 3.3-3.1 6.6-5.5 9.3-1.2 1.3-2.8 1.6-4.5.8-1.7-.8-2.2-2.1-2.1-4.5zM106 43.1c0 2.4-.6 3.6-2.2 4.3-1.8.8-3.5.4-4.5-1-1.7-2.5-3.3-5.1-4.6-7.8-.8-1.6-.1-3.3 1.4-4.4 1.3-1 2.8-1.5 4.2-.3 3 2.6 4.7 6.1 5.7 9.2zM156.8 73.2c-2.3-.1-4-.8-4.5-3.2-.5-2.3.6-4 2.6-4.7 2.5-.9 5.2-1.6 7.9-2 2-.3 3.6.6 4.1 2.7.5 2.2-.1 4-2.3 4.8-2.5 1-5.2 1.6-7.8 2.4z"/></svg>