<svg xmlns="http://www.w3.org/2000/svg" xml:space="preserve" style="enable-background:new 0 0 192 192" viewBox="0 0 192 192"><path d="M105.7 20.7c27.1.9 53.6 26.1 58.4 55.1 5.6 33.5-12.1 64.2-44.3 76.7-13.7 5.3-16.1 7.3-23.9 19.5-4.9-12-15.2-16.4-26-20.7-27-10.8-44.8-38.8-42.8-66.5 2.2-30.7 22.2-55.4 51-63.2 2.7-.7 5.5-1 8.9-1.6v10.3c-9.2 4.9-18.5 8.3-26.1 14C40.3 60 34.1 88.3 45 111.7c10.9 23.3 36.2 36 62 31.2 24.6-4.6 43.9-26.2 45.3-50.6 1.5-26.9-14-50.5-39.3-57.7-8.4-2.4-9.6-6.4-7.3-13.9z"/><path d="M86.7 47c2.1 7.4.9 12-6.3 15.8-12 6.4-16.9 20.5-13.1 33.3 3.8 12.8 15.7 21.7 28.9 21.7 13.5-.1 25.3-9.3 29-22.7 3.3-12.2-1.8-26.2-13.6-32.4-7.4-3.8-7.9-8.6-6.2-15.3 19.3 2.4 33.9 21 33.1 42.3-.8 21.7-18.4 39.4-40.4 40.5-21.5 1.1-40.9-14.6-44.1-35.5C50.7 72.3 64.2 52.3 86.7 47z"/></svg>