<svg xmlns="http://www.w3.org/2000/svg" xml:space="preserve" style="enable-background:new 0 0 192 192" viewBox="0 0 192 192"><path d="M95.5 120c13.4 0 24.3 10.8 24.3 24.3 0 13.4-10.9 24.3-24.3 24.3-11.1 0-20.5-7.5-23.3-17.8-3 6.7-9.7 11.4-17.5 11.4-10.5 0-19.1-8.5-19.1-19.1 0-10.5 8.5-19.1 19.1-19.1 8.2 0 15.2 5.2 17.9 12.4 3.2-9.6 12.3-16.4 22.9-16.4zm-12 27.3c.1 7.3 6.1 13.1 13.6 13.2 7.5.1 13.6-5.7 13.9-12.9l-27.5-.3zm-41.3-4.7c-.8 6.2 3.2 11.9 9.1 12.9 5.9 1 11.6-3.2 12.7-9.3l-21.8-3.6zM32.1 23.5s76.1 98.6 128.7 128.1c0 0-10.7 6.4-39 2.1 0 0 6.8-31.1-20.5-37.9-.7-.2-17.5-4.4-28.1 8.9 0 0-5.4-10-15.2-7 .1.1-32.6-26.6-25.9-94.2zm28.8 110.8c-1.7 0-3.1 1.4-3.1 3.1 0 1.7 1.4 3.1 3.1 3.1 1.7 0 3.2-1.4 3.1-3.1 0-1.6-1.4-3.1-3.1-3.1zm46.6-.7c-1.9 0-3.5 1.6-3.5 3.5s1.5 3.5 3.5 3.5c1.9 0 3.5-1.5 3.5-3.5 0-1.9-1.6-3.5-3.5-3.5zm-17.8-.9c-1.9 0-3.5 1.6-3.5 3.5s1.5 3.5 3.5 3.5c1.9 0 3.5-1.6 3.5-3.5-.1-1.9-1.6-3.5-3.5-3.5zm-43-.4c-1.7 0-3.2 1.4-3.1 3.1 0 1.7 1.4 3.1 3.1 3.1 1.7 0 3.1-1.4 3.1-3.1 0-1.7-1.4-3.1-3.1-3.1zm89.8-14c4.9 0 8.8 4.1 8.8 9.1 0 1.8-.5 3.5-1.4 4.8-4.4-3.5-8.9-7.3-13.6-11.4 1.7-1.5 3.8-2.5 6.2-2.5zm-20.3-20.9c8.4 0 15.3 6.7 15.3 15 0 2.8-.8 5.3-2.1 7.5-7.1-6.3-14.3-13.2-21.3-20.2 2.3-1.4 5.1-2.3 8.1-2.3zM94 74.9c8.6 0 15.5 7 15.5 15.7 0 3-.9 5.8-2.3 8.2C99.8 91.4 92.7 84 86.1 77c2.4-1.3 5.1-2.1 7.9-2.1zM73.2 54c8 0 14.4 6.5 14.4 14.5 0 2.8-.8 5.5-2.2 7.7-7.1-7.6-13.5-14.8-18.7-20.6 1.9-1 4.2-1.6 6.5-1.6zM57.9 39.6c4.9 0 8.9 4.2 8.9 9.4 0 1.9-.5 3.6-1.5 5.1-4.1-4.6-7.3-8.4-9.5-10.9l-.3-.4c-.8-.9-1.4-1.6-1.8-2.1 1.3-.7 2.7-1.1 4.2-1.1z"/></svg>