<svg xmlns="http://www.w3.org/2000/svg" xml:space="preserve" style="enable-background:new 0 0 192 192" viewBox="0 0 192 192"><path d="M97 153c-14-.7-28.2-.2-42-2.4-16.3-2.5-28.7-11.8-33.1-28.7-4.1-15.7-2.1-31.6 11.1-41.6 11.4-8.7 20.9-18.6 31-28.6 22.7-22.6 61.8-13.7 78 15.8 1.8 3.2 4.4 6.7 7.5 8.5 17.6 10.2 25.8 27.5 21.3 46-4.3 17.6-19.9 29.6-40 30.2-11.2.3-22.5.1-33.8.1v.7zm-37.9-45.6c11.6 1.7 16.5-.7 17.6-8.1 1.1-7.7-5.7-15-15-16-11.7-1.4-21.9 3.8-25.9 14.4-5.7 15.2-2.7 34.8 18.3 39.2 13.2 2.8 27.3 2.5 41 2 19.2-.7 33.6-12.4 38.9-29.7 5.5-17.9-.3-37.2-14.5-48.7-17-13.7-43.9-9.1-52.8 9.1C89.2 82.8 95.2 95 86.4 110.2c-6.7 11.4-19.7 14.4-32.6 7.1 1.7-3.2 3.4-6.4 5.3-9.9zm90.3-14.5c-.5 17.6-5.8 32.9-19.6 45.8 15.3-.9 24.8-7.4 28-17.9 3.2-10.4.4-20.7-8.4-27.9z" style="stroke:#000;stroke-linecap:round;stroke-linejoin:round;stroke-miterlimit:10"/></svg>