<svg xmlns="http://www.w3.org/2000/svg" xml:space="preserve" style="enable-background:new 0 0 192 192" viewBox="0 0 192 192"><path d="M111.7 24.3c-3.3 4.5-6.5 9-10 13.3-7.5 9.2-15.5 17.9-22.5 27.5-8.1 11.1-5.7 22.6 5.4 30.8 4.2 3.1 8.8 5.9 12.7 9.3 1.9 1.6 3.9 4.8 3.5 6.8-.3 1.9-3.5 4.4-5.8 4.8-23.2 4-44.4-1.5-62.7-15.9-12.3-9.5-11.4-19.1-.1-33 14.7-18.2 35-29.3 55.9-39 4.8-2.2 9.6-4.3 14.5-6 2.3-.8 5-.6 7.5-.8.5.7 1.1 1.4 1.6 2.2z"/><path d="M81.2 166.6c3.6-5 7.1-10.2 11-14.9 6.8-8.3 14.5-15.9 20.7-24.6 8.8-12.2 6.1-25.1-6.2-33.7-3.8-2.7-8.1-4.9-11.6-8-1.8-1.6-3.5-4.9-3-6.9s3.6-4.5 5.9-4.8c22.2-2.9 42.9 1.7 60.9 14.9 12.4 9.1 12.8 21.3 1.9 33.7-15.3 17.6-34.6 29.9-55.7 39.3-7.1 3.2-14.5 5.6-21.7 8.3-.7-1-1.5-2.2-2.2-3.3z"/></svg>