<svg xmlns="http://www.w3.org/2000/svg" xml:space="preserve" viewBox="0 0 192 192"><path d="M159.4 44.4c-2.2 10.3 3.2 18.6 6.1 27.6 6.7 20.7 4.9 40.7-5.3 59.9-1.5 2.9-3.2 5.4-7.1 5-1.5-.2-2.9.7-3.9 1.8-4.2 4.2-8.4 8.4-12.5 12.7-.7.7-1.5 1.7-1.5 2.5.2 5.5-3.9 7.2-7.9 8.9-25.4 11.1-49.8 9.4-73.1-5.8-4.7-3.1-4.8-3.9-.9-7.8 3-3 5.7-7 9.3-8.7 4.3-2 7.6 2.9 11.4 4.5 22 9.4 45.5 4.1 62.1-14.3 14.5-15.9 17.2-42.2 5.9-61.5-2.8-4.8-2.5-7.7 1.6-11.3 4.9-4.3 9.3-9.3 13.9-14 .8.2 1.4.4 1.9.5zM32.6 147.6c2.2-10.3-3.2-18.6-6.1-27.6-6.7-20.7-4.9-40.7 5.3-59.9 1.5-2.9 3.1-5.4 7.1-5 1.5.2 2.9-.7 3.9-1.8 4.2-4.2 8.4-8.4 12.5-12.7.7-.7 1.5-1.7 1.5-2.5-.2-5.8 4.3-7.4 8.3-9.1 25.2-10.8 49.5-9.1 72.6 6 4.7 3.1 4.8 3.9.9 7.8-3 3-5.7 7-9.3 8.7-4.3 2-7.6-2.9-11.4-4.5-22.1-9.4-45.4-4.1-62.1 14.3-14.5 15.9-17.2 42.2-5.9 61.5 2.8 4.8 2.6 7.7-1.5 11.3-4.9 4.3-9.3 9.3-13.9 14-.7-.2-1.3-.4-1.9-.5z"/><path d="M92.1 64.9c18.2 0 30.5 9.7 33.5 23.2 3.1 14.2-4 28.7-16.9 34.5-5 2.3-5.8 1.7-6.1-3.9-.2-3.9.9-6.7 4.3-9.2 6.9-5 9.2-13.2 6.4-20.6-2.7-7.3-10-12.2-17.6-12-7.5.3-14.2 5.4-16.5 12.8-2.4 7.7 0 15.8 7.2 20.3 4.8 3 4 7.1 4 11.2 0 2.6 1.3 6.5-.7 7.4-2.4 1.1-3.6-2.9-5.6-4.5-3.3-2.5-6.5-5.1-9.4-8-8.6-8.7-11.1-22-6.2-33 5.3-11.7 14.5-18 23.6-18.2z"/></svg>