<svg xmlns="http://www.w3.org/2000/svg" xml:space="preserve" id="图层_1" x="0" y="0" style="enable-background:new 0 0 192 192" version="1.1" viewBox="0 0 192 192"><style>.st0{stroke:#000;stroke-width:8;stroke-linecap:round;stroke-linejoin:round;stroke-miterlimit:10}</style><path d="M66.3 164.3c7.8-9.8 15.8-19.4 21-31 1.2-2.6 2.2-5.3 3.2-7.9 1.9-4.7 1.8-9.2-3.1-12-5.5-3.3-9.4 0-12.4 4.1-5.1 6.9-9.8 14-16.3 19.8-1.5 1.3-3 2.5-5 3.3 2.3-7 7.8-11.7 11.9-17.3 2.5-3.4 4.7-7.2 7.6-10.3 4.3-4.6 9.7-6 15.6-3.3 5.6 2.5 7.6 7.7 6.1 12.9-4.7 16.9-14.4 31-28.6 41.7z" class="st0"/><path d="M93.6 172c11.9-13.9 15.2-29.8 18.6-45.7 2.9-13.9-6.4-30.7-19.4-35-4.9-1.6-8.9-.1-13.2 1.6-1.7.7-3.7 3.2-4.9.2-.9-2.4 2-3 3.7-3.8 14.2-7 33.3 1.5 34.8 17.3 2.1 22.3.8 44.6-14.2 63.4-.5.7-1 1.4-1.7 1.9-.4.1-1.1 0-3.7.1zM145.1 64.4C114 39.7 81.3 36.1 46.9 56.6c23.5-24.6 82.8-19.3 98.2 7.8zM64.3 72c11.3-9.6 24.7-8.1 38-7.1 8.7.6 15.4 5.5 22.1 10.5 1.1.9 2.1 2.3 1.3 3.7-1 1.8-2.4.9-3.6 0-17.9-13.3-36.9-16.6-57.8-7.1zM131.3 108.7c-2.6 18.8.1 37.8-1.7 56.7-4.8-18.9-3.5-37.8 1.7-56.7zM85.1 21.8c9.8-4.2 17 0 24.4 1.5-7.4-1.2-14.8 1.6-24.4-1.5z" class="st0"/></svg>