<svg xmlns="http://www.w3.org/2000/svg" xml:space="preserve" viewBox="0 0 192 192"><path d="M122.7 169.7c-1 0-2-.1-2.9 0-8.1 1.1-13.5-.9-16.1-10.1-2.2-8.1-11.1-12.7-19.6-12.2-9.1.5-16 4.9-18.7 13.6-2.9 9.4-5.3 8.6-13 8.6-5.5 0-11 .1-16.5-.3-7.9-.6-13-5.5-13.5-13.3-.4-7.1-.2-14.2-.1-21.3 0-3.7 2-5.8 5.6-6.9 11-3.5 16.5-10.5 16.5-20.6 0-10.1-5.8-17.8-16.6-21.1-3.8-1.2-5.7-3.3-5.7-7.3.1-6.1-.1-12.3.1-18.4.4-10.5 6-15.9 16.6-16.2 4.2-.1 8.4-.3 12.6 0 5.4.4 8.5-1.7 10.7-6.8 5.2-12 17.2-17.8 28.9-14.6 7.8 2.1 13.6 7 16.5 14.5 2.2 5.4 5.6 7.4 11.1 7 4.3-.3 8.7-.2 13.1 0 9.9.5 15.4 6 15.8 16 .2 4.8.2 9.7.2 14.5 0 4.3 1.6 7.2 5.8 9 10.3 4.4 16.2 12.2 16.3 23.6.1 11.5-6.2 19-16.6 23.2-3.4 1.4-5.1 3.7-5.2 7.3l-.3 15c-.2 11.1-5.3 16.3-16.3 16.7-2.9.2-5.8.1-8.7.1zM55.4 60v.1c-3.9 0-7.8.1-11.6 0-3.9-.1-5.3 1.8-5.6 5.5-.4 4.9 1.5 8 5.5 10.9 22.6 16.1 22.3 46.2-.6 61.9-.7.5-1.4.9-2 1.4-2.5 2.1-4 8.5-2.6 11.6 1.7 3.7 5.2 2.5 8.1 2.5 4 .1 5.8-2.9 7.7-5.8 15.2-21.8 45.3-22 60.7-.4.9 1.3 1.7 2.8 2.8 3.9 3.1 3.2 7.1 2.7 10.9 1.9 3.7-.8 2.8-4.3 2.8-6.9.1-5.3 0-10.7.1-16 .1-11.7.9-12.6 12.4-14.3 1.3-.2 2.6-.4 3.8-.9 4.1-1.5 5.6-4.6 5.5-8.7-.1-3.9-1.9-6.9-5.7-8.1-2-.6-4.1-.8-6.2-1-7.4-.6-9.7-2.9-9.8-10.3-.1-6.9-.2-13.9-.1-20.8.1-4.7-1.8-6.7-6.6-6.6-6.8.2-13.6.1-20.3 0-7.8-.1-10.1-2.3-10.7-10-.2-1.8-.3-3.5-.8-5.3-1.1-4.3-3.9-6.6-8.4-6.6s-7.3 2.4-8.3 6.6c-.5 2.2-.7 4.5-.9 6.7-.5 6-2.7 8.3-8.5 8.7-3.8.2-7.7 0-11.6 0z"/></svg>