<svg xmlns="http://www.w3.org/2000/svg" xml:space="preserve" viewBox="0 0 192 192"><path d="M33.6 93.9c2.1 0 4.3-1.1 4.3-3.2 3.2-17.1 15-32.1 30-40.7 2.1-1.1 2.1-3.2 1.1-5.4 0-1.1-2.1-2.1-4.3-1.1-17.1 8.6-28.9 25.7-33.2 46v3.2c1 .1 2.1.1 2.1 1.2zM122.2 50c16.1 8.6 26.8 23.5 30 41.7 0 2.1 2.1 3.2 4.3 2.1 2.1 0 3.2-2.1 3.2-4.3-4.3-20.3-16.1-37.5-34.3-46-2.1-1.1-4.3 0-4.3 1.1-1 2.2-1 4.3 1.1 5.4zm15 94.2c-10.7 11.8-25.7 19.3-42.8 19.3-16.1 0-30-6.4-41.7-17.1-1.1-1.1-3.2-1.1-5.4 0-1.1 1.1-1.1 3.2 0 5.4C59.1 164.5 76.2 172 94.4 172s35.3-7.5 48.2-21.4c1.1-1.1 1.1-4.3 0-5.4-1.1-2.1-3.2-2.1-5.4-1zM95.5 56.4c9.6 0 17.1-8.6 17.1-18.2S105.1 20 94.4 20c-9.6 0-18.2 8.6-18.2 18.2s8.6 18.2 19.3 18.2zm0-28.9c5.4 0 10.7 5.4 10.7 10.7 0 6.4-4.3 10.7-10.7 10.7-5.4 0-10.7-5.4-10.7-10.7 0-6.4 4.2-10.7 10.7-10.7zm-38.6 91c0-10.7-8.6-18.2-18.2-18.2s-18.2 8.6-18.2 18.2c0 10.7 8.6 18.2 18.2 18.2 9.7 1 18.2-7.5 18.2-18.2zm-18.2 11.8c-6.4 0-10.7-5.4-10.7-11.8s5.4-11.8 10.7-11.8c6.4 0 10.7 5.4 10.7 11.8s-5.3 11.8-10.7 11.8zm114.6-30c-9.6 0-18.2 8.6-18.2 18.2 0 10.7 8.6 18.2 18.2 18.2s18.2-8.6 18.2-18.2-8.6-18.2-18.2-18.2zm0 30c-6.4 0-10.7-5.4-10.7-11.8s5.4-11.8 10.7-11.8c6.4 0 10.7 5.4 10.7 11.8s-4.3 11.8-10.7 11.8z"/></svg>