<svg xmlns="http://www.w3.org/2000/svg" xml:space="preserve" viewBox="0 0 192 192"><path d="M111.8 64.9c1.1-2.7 2.5-7.6 1.9-13.4l-.1-.4c-.4-2.6-1.3-9.6-7.3-15.9-6.4-7-14.8-8.2-17.6-8.6-.2 0-.4-.1-.6-.1-.7-.1-1.6-.2-2.9-.2-3.6 0-8.9.8-14.4 4.4-.4.2-9.8 6.4-11.8 19.1-.2.9-.8 4.6 0 9.4.3 1.6.9 3.2 1.5 4.4v3.9c-1.2-2.2-2.3-4.9-3-8.2V59c-.4-2.2-1.5-8.9 1.5-16 .9-2.1 5.6-12.7 17.8-17h.1c1-.4 4.6-1.4 9.3-1.4 2.6 0 5.1.3 7.6.9 3.8.9 11 3.7 16.3 11 3.1 4.3 6.5 11.6 5 22.1v.1c-.7 3.6-2 6.6-3.3 8.9v-2.7z"/><path d="M86.2 22c-5.3 0-9.1 1.2-10.2 1.6C62.4 28.3 57.4 40.4 56.7 42c-3.5 8.2-1.9 15.8-1.6 17.7 1.6 8.2 6 13.3 7.9 15.2v-12c-.6-.9-1.3-2.5-1.6-4.1-.6-3.8-.3-7 0-8.5 1.9-11.7 10.8-17.4 10.8-17.4 4.9-3.3 9.9-4 13-4 1.1 0 2 .1 2.5.2 1.9.3 10.4.9 16.8 7.9 5.7 6 6.3 12.7 6.6 14.9.6 5.7-.9 10.4-1.9 12.7v10.8c2.2-2.2 6.6-7.9 8.2-16.1.3-2.2 2.2-13.6-5.4-24.1-6.3-8.9-15.2-11.4-17.7-12-2.8-.9-5.6-1.2-8.1-1.2z"/><path fill="none" stroke="#000" stroke-miterlimit="10" stroke-width="8" d="M72.3 108.4v-57c.3-1.5-.9-6.2 2.8-9.9 2.8-3.1 6.2-3.7 7.4-4 1.5-.3 5.9-1.2 10.2 1.5.6.3 4.6 2.8 6.5 8.3.9 3.1.9 5.5.9 6.8v27.7c0 .3.3.3.6.3.6-.3 1.2-.3 2.2-.6 1.8-.3 3.4 0 4 .3 3.4.9 5.2 3.1 5.5 3.7.9 1.2 1.5 2.2 1.8 3.1 0 .3.3.3.6 0 .9-.6 2.2-1.5 4-2.2 1.2-.3 3.1-.6 5.5.3.6.3 2.5.9 4.6 3.1.9 1.2 1.5 2.2 2.2 3.1 0 .3.3.3.6 0 1.2-.9 3.4-2.2 6.8-2.2.6 0 3.1.3 5.5 2.2 1.2.9 3.4 2.8 4.6 6.5.3.9.3 1.8.6 2.8v44.7c0 1.8-.3 4.6-1.5 7.7-1.5 4.6-4 7.7-5.5 8.9-5.2 5.5-11.4 6.2-13.6 6.5H86.2c-2.2-.3-5.5-.9-8.6-3.4-2.2-1.5-3.4-3.1-3.7-4-3.1-4.3-9.2-16.9-22.5-31.1-1.2-1.5-3.7-4.3-5.5-8-2.5-4.9-3.4-8.3-3.1-10.2.6-6.2 2.5-6.8 3.4-8 .9-.9 2.5-2.2 4.6-3.4 1.8-.9 4-2.5 7.4-2.2 1.5 0 4.3 0 6.5 2.2 1.2 1.2 2.2 1.5 4.6 4 .6.6 1.8 2.2 2.8 2.5-.1.6.2.3.2 0z"/></svg>