<svg xmlns="http://www.w3.org/2000/svg" xml:space="preserve" style="enable-background:new 0 0 192 192" viewBox="0 0 192 192"><path d="M97.3 32.2c12.5 0 26.2 5 37.6 13.6 6.7 5.1 12.2 11.3 16.1 17.8-29.8 3.3-50.1 11-64.5 24.2-14.4 13.3-23.3 32.2-28 60.3-5.5-4-10.8-9.6-15.3-16.3-7.9-12-12.1-25.9-11-37.2 3.3-36 28-60.5 62.8-62.4h2.3m0-12c-1 0-2 0-2.9.1-40.8 2.2-70.3 31.3-74.2 73.3-2.8 29.7 21.3 66 48 72.4 6.6-66.2 30.4-88 99.8-91.7-6.2-29.4-39.1-54.1-70.7-54.1z"/><path d="M160 99c0 12.4-4.8 25.9-13.7 37.1-10.5 13.2-24.9 21.5-40.3 23.4.2-12.7 5.2-25.8 14.5-37.1C131 109.4 145.4 101 160 99m6.7-12.5c-42.1 0-79.9 44.1-71.6 85.2 1.4.1 2.8.1 4.1.1 47 0 80.2-47.7 71.3-85.2-1.2-.1-2.5-.1-3.8-.1z"/></svg>