<svg xml:space="preserve" viewBox="0 0 192 192">
  <path d="M90.7 41c1-4.9-1.4-5.7-5.4-4.5-.7.2-1.4.5-2.1.7C60.9 43.1 47.7 58.8 42.6 80c-.4 1.7-1.2 4.9 2.4 4.3 2.3-.4 5.9 2.5 6.7-2.6C54.4 63.8 68.9 48.6 87 45.5c3.3-.6 4.4-1.4 3.7-4.5zm59 39.8c-.1-.9-.2-1.9-.4-2.8-6.3-21.6-19.7-35.9-42-41.2-1.9-.5-4.7-2.1-4.6 1.3 0 2.4-3 6.3 3 7.4 10.6 1.9 19.6 7 26.3 15.9 4.7 6.1 8.1 12.7 9.4 20.2.7 4.4 3.4 2.5 5.4 2.9 2.9.5 2.9-1.6 2.9-3.7zM124.2 96H114c-11.7 0-11.7 0-11.7 11.6 0 7.3 0 7.2 7.2 6.9 1.9-.1 3.1-.8 4.5-1.9 5.3-4 8.5-9.3 10.2-16.6zm-18.8 43.2c-5.2 5.2-6.3 8.5-5.4 14.3.2 1.2.2 2.4 1.8 2.4 10.3 0 20.8 1.4 30.1-5.4 5.9-4.3 6.1-12.1 3.8-15.8-3.8-6.2-14-9.9-19.3-7 2.7 1 5.3 2 7.9 2.9 4.6 1.4 6.7 4.6 6.9 9.3.3 6.9-5.5 12.5-13.1 12.7-12 .3-12 .3-12.3-9.7 0-1-.2-1.9-.4-3.7zm-50 16.8h34.9c1.3 0 2.4-.7 2.3-1.9 0-.8-1-1.5-2.2-1.5-1.3 0-2.7.2-4-.1-5-1-12.2 3.2-14.6-3-2.3-5.9 5.3-8.3 8.5-12.2 3.3-4 7.3-7.5 11.2-11.5-3.3-1.4-5-.8-6.7.9-9.3 9.4-18.7 18.7-29.4 29.3zm25.4-60c-2.1 0-4.2.1-6.3 0-3.6-.3-3.9 1.8-2.9 4.3 2.1 5.2 5.2 9.7 9.6 13.2 2.5 2 5.7 1.3 8.2.7 2.6-.6 1-3.6 1.3-5.5.2-.9 0-1.9 0-2.9.1-9.8.1-9.8-9.9-9.8zm21.5-31.2v16.5c0 2 .4 3.2 2.8 3.2 5.9-.1 11.7 0 18.1 0-3.1-10.9-10.3-16.3-20.9-19.7zM71.1 84.2c20.6 1.5 20.9 1.2 19.6-18 0-.1-.2-.3-.3-.5-9.9 2.2-15.6 8.9-19.3 18.5zM56 114c-1.5-4.6-4-9-4.1-13.4-.1-6.7-4.5-4.7-7.3-4.3-4.4.6-1.4 3.6-1 5.6.3 1.8.9 3.6 1.2 5.5 1.1 6.1 4.6 8.5 11.2 6.6zm80.3.3c8.8.4 8.8.4 11.1-8.1.4-1.4 1-2.8 1.5-4.2.7-2.2 2.3-5.1-1.3-5.8-2.5-.5-5.8-1.7-6.4 3.5-.6 4.9-3.1 9.5-4.9 14.6zm-61.6 10.2c-6.8 1.4-13-1.6-18.6 2.6 6.4 4 13.6 3.2 18.6-2.6zm34.1.6c-9.8-.5-9.8-.5-8.1 8.1 2.6-2.5 5.1-5.1 8.1-8.1z"/>
</svg>
