<svg xmlns="http://www.w3.org/2000/svg" xml:space="preserve" viewBox="0 0 192 192"><path d="M95.8 169.9c-41-.2-74-33.3-73.8-74 .2-40.8 33.8-74.3 74.4-73.9 40.7.3 73.7 33.7 73.6 74.3-.1 40.9-33.4 73.9-74.2 73.6zm62.9-73.7c.3-34.5-27.7-62.8-62.3-63.1-34.6-.3-63 27.8-63.2 62.6-.2 35 27.5 63 62.5 63.1 35.1.1 62.8-27.4 63-62.6z"/><path d="M55.2 136.9c7.5-14.1 14.9-26.9 21.2-40.3 4.2-8.8 9.9-14.8 18.8-18.9 12.4-5.7 24.2-12.4 36.3-18.7.8-.4 1.4-1.2 2.6-.8.1 1.7-1.1 2.9-1.8 4.3-7.4 14.3-14.9 28.7-22.3 43-1.1 2.2-2.4 4-4.8 5.2-15.7 8.2-31.4 16.6-47.1 25-.5.2-1.1.4-2.9 1.2zm52.4-52.1c-12.4 3.4-20.5 11.6-24 24 12.4-3.5 20.5-11.5 24-24z"/></svg>